<svg width="30" height="30" viewBox="0 0 30 30" fill="none" xmlns="http://www.w3.org/2000/svg">
<path d="M7.75136 2.07642C7.66062 2.11313 6.86914 2.62693 5.98691 3.2089C4.25776 4.35709 3.82421 4.7241 3.46124 5.36374C3.14868 5.91424 3.03273 6.35465 3.00752 7.08866C2.98736 7.70732 2.99744 7.79121 3.16885 8.51997C3.56206 10.182 4.14181 11.8178 4.96354 13.5584C6.26923 16.3267 7.78161 18.513 9.94935 20.7727C12.1221 23.0271 14.2143 24.5895 16.8861 25.9579C18.5346 26.802 20.1478 27.4207 21.7358 27.8244C22.4315 28.0027 22.5122 28.0131 23.1071 27.9922C23.8128 27.966 24.2363 27.8454 24.7656 27.5203C25.3756 27.1481 25.7336 26.6919 26.8326 24.8989C27.3921 23.9866 27.8862 23.1582 27.9265 23.0533C28.0324 22.786 28.0223 22.1568 27.9064 21.8894C27.7803 21.6063 27.5232 21.3075 27.2964 21.1869C26.9283 20.9929 21.4687 18.8905 21.2368 18.8538C20.8385 18.7909 20.5511 18.9219 19.432 19.6717C18.2322 20.4738 18.0809 20.5577 17.7432 20.5577C17.355 20.5577 17.1584 20.4791 16.5736 20.0754C14.2748 18.5025 12.1322 16.2742 10.6198 13.8835C10.2317 13.2753 10.156 13.0708 10.156 12.6671C10.156 12.3158 10.2367 12.1586 11.008 10.9107C11.7289 9.74682 11.855 9.44797 11.7945 9.03378C11.7592 8.7926 9.73762 3.11452 9.55109 2.73179C9.43514 2.49586 9.14779 2.22847 8.87556 2.0974C8.6235 1.97681 7.99334 1.96632 7.75136 2.07642Z" fill="white"/>
<path d="M16.4416 2.15245C15.8409 2.57302 15.8554 3.57711 16.4706 3.97139C16.6547 4.08704 16.7661 4.10807 17.4298 4.15013C18.2776 4.21321 18.9654 4.34464 19.6679 4.57595C22.4291 5.5117 24.6575 7.88788 25.5585 10.8686C25.8152 11.7097 25.946 12.4825 25.9993 13.4551C26.0381 14.1753 26.0574 14.2857 26.1689 14.4907C26.5419 15.1741 27.4962 15.1689 27.8692 14.4802L28 14.2436L27.9709 13.3657C27.8789 10.3482 26.6969 7.50411 24.6332 5.33296C22.6277 3.23015 19.9101 2 17.2603 2C16.6886 2 16.6596 2.00526 16.4416 2.15245Z" fill="white"/>
<path d="M16.4867 6.10584C16.1687 6.29034 16 6.62136 16 7.07177C16 7.34852 16.0241 7.46791 16.1205 7.65241C16.3084 8.01599 16.5542 8.14623 17.1324 8.18964C18.5058 8.29275 19.5274 8.79199 20.4719 9.81219C21.4501 10.8704 21.9464 12.1022 22.0476 13.7519C22.0862 14.3759 22.2067 14.6527 22.5247 14.8643C22.6885 14.9729 22.7946 15 23.0403 15C23.4499 15 23.7391 14.8101 23.9029 14.4302C24.0089 14.1914 24.0137 14.1317 23.9848 13.4317C23.8451 9.90987 21.6043 6.95238 18.4624 6.14925C18.2118 6.08413 17.7782 6.02986 17.3734 6.01358C16.7421 5.98645 16.6843 5.99188 16.4867 6.10584Z" fill="white"/>
<path d="M16.4519 11.1219C15.9457 11.422 15.8473 12.1582 16.2457 12.6131C16.3769 12.7584 16.6488 12.871 16.9722 12.9038C17.6096 12.9694 17.9939 13.3492 18.0877 14.0057C18.1392 14.3715 18.247 14.6294 18.3877 14.756C18.8423 15.1545 19.5875 15.0514 19.8828 14.545C19.9813 14.3762 20 14.2871 20 13.9729C20 12.3692 18.6267 11 17.0237 11C16.705 11 16.6206 11.0188 16.4519 11.1219Z" fill="white"/>
</svg>
