<svg width="30" height="30" viewBox="0 0 30 30" fill="none" xmlns="http://www.w3.org/2000/svg">
<path d="M3.00443 4.03519C2.76052 4.09969 2.36139 4.3108 2.21172 4.45741C1.91792 4.75062 1.92901 5.13766 2.25053 5.46019C2.43346 5.64785 11.4415 13.4121 11.9348 13.805C12.1787 14.0103 12.5668 14.0572 12.8495 13.9282C13.099 13.8167 22.7666 5.49538 22.8941 5.28427C23.138 4.89136 22.9551 4.4926 22.4008 4.20525L22.0238 4.01173L12.6 4C7.41697 4 3.09866 4.01173 3.00443 4.03519Z" fill="white"/>
<path d="M1.36263 7.05297C1.29464 7.07699 1.18698 7.17908 1.11899 7.26915L1 7.43129L1.01133 13.7726L1.02833 20.1138L1.20965 20.5162C1.40796 20.9666 1.79892 21.4169 2.19555 21.6631C2.76216 22.0174 2.56951 22.0114 9.2102 21.9934L15.2899 21.9754L15.4486 21.7832L15.6129 21.5911L15.5789 20.4621C15.5449 19.147 15.6129 18.5465 15.9245 17.5377C16.7121 14.9976 18.5819 13.0159 20.9787 12.1872C21.6416 11.9531 22.4349 11.7969 22.9562 11.7969C23.4038 11.7969 23.6701 11.7129 23.8401 11.5207L23.9761 11.3646L23.9931 9.485C24.0101 7.9237 23.9988 7.5694 23.9251 7.38925C23.8174 7.11903 23.5341 6.9629 23.2565 7.01694C23.1035 7.04697 21.9306 8.03178 18.361 11.1124C15.3579 13.7065 13.5561 15.2258 13.3578 15.3219C12.8138 15.5981 12.1509 15.5981 11.6126 15.3279C11.4653 15.2558 9.28386 13.4123 6.75677 11.2325C4.22968 9.05263 2.07656 7.2091 1.96891 7.13104C1.77059 6.98692 1.57228 6.9629 1.36263 7.05297Z" fill="white"/>
<path d="M22.6943 13.0331C21.2942 13.2657 20.2372 13.7844 19.2023 14.7385C18.4774 15.4063 17.7745 16.4975 17.4093 17.523C16.8946 18.9839 16.8614 20.725 17.3318 22.2455C18.09 24.7021 20.1486 26.5744 22.5172 26.9441C23.2366 27.0574 24.4818 26.9918 25.1348 26.807C25.8764 26.5983 26.5958 26.2525 26.8614 25.9782C27.0717 25.7635 27.0772 25.7397 27.0496 25.4713C27.0274 25.2507 26.9832 25.1493 26.8503 25.0241C26.6234 24.8035 26.4132 24.8095 25.9594 25.042C24.2106 25.9484 22.3955 25.8947 20.8459 24.9049C19.0529 23.7541 18.0125 21.5121 18.2671 19.3655C18.5825 16.724 20.4585 14.7027 22.9101 14.3628C24.1719 14.1899 25.6273 14.6192 26.6788 15.4838C27.5089 16.1576 28.2006 17.2011 28.505 18.2147C28.7208 18.9422 28.7817 19.3834 28.7817 20.2063C28.7817 20.9933 28.7042 21.2497 28.3777 21.5598C27.8631 22.0428 27.0772 21.9354 26.6954 21.3213C26.5017 21.0172 26.4574 20.5998 26.4574 19.1509V17.8093L26.2969 17.6363C26.1697 17.4992 26.0866 17.4634 25.904 17.4634C25.7767 17.4634 25.6273 17.4932 25.5664 17.529C25.4779 17.5767 25.4226 17.5648 25.2787 17.4455C24.9964 17.213 24.5482 16.9924 24.1774 16.897C23.1591 16.6406 22.163 16.9506 21.4159 17.7556C20.2427 19.0197 20.2372 20.9993 21.3993 22.2515C22.0025 22.9014 22.6445 23.1876 23.4967 23.1876C24.2604 23.1876 24.9024 22.9372 25.4613 22.4184L25.7048 22.1918L25.9704 22.4781C26.1143 22.6331 26.4021 22.8477 26.6013 22.9551C26.9278 23.128 27.0385 23.1578 27.5144 23.1757C27.9239 23.1936 28.1232 23.1757 28.3501 23.0982C29.0861 22.8299 29.6616 22.2157 29.9051 21.4346C30.0269 21.047 30.0324 19.4848 29.9162 18.7692C29.4458 15.8594 27.2709 13.5519 24.5593 13.0808C24.0999 12.9973 23.0429 12.9735 22.6943 13.0331ZM24.2272 18.328C25.323 18.8647 25.5775 20.3911 24.7197 21.3153C23.624 22.49 21.7756 21.6612 21.7867 19.9976C21.7978 18.6321 23.0706 17.7616 24.2272 18.328Z" fill="white"/>
</svg>
