<svg width="30" height="30" viewBox="0 0 30 30" fill="none" xmlns="http://www.w3.org/2000/svg">
<path d="M14.1855 2.05681C12.9813 2.18937 11.8939 2.51129 10.7389 3.09201C8.67461 4.12089 7.08955 5.73681 6.0697 7.84508C5.51677 8.98127 5.20344 10.067 5.04985 11.3547C4.94541 12.232 5.01299 13.9553 5.17887 14.7695C5.79938 17.7678 7.64248 21.0375 10.6467 24.484C11.5621 25.5318 13.3991 27.3813 14.3944 28.2587C15.1807 28.953 15.3958 29.073 15.7091 28.9656C16.1084 28.8205 19.0082 26.0368 20.2923 24.5534C23.3948 20.9807 25.2072 17.7678 25.8216 14.7695C25.9936 13.9363 26.055 12.2762 25.9444 11.3483C25.3854 6.38697 21.5886 2.56178 16.7351 2.05681C16.0163 1.98106 14.8981 1.98106 14.1855 2.05681ZM16.6429 6.91088C17.2573 7.06868 18.1297 7.51053 18.572 7.88927C19.3584 8.55204 19.9789 9.57462 20.2308 10.5972C20.3844 11.2221 20.3967 12.2194 20.2554 12.8633C20.0404 13.8543 19.3707 14.9778 18.6151 15.6217C18.1358 16.0257 17.1467 16.5243 16.5446 16.6632C16.2928 16.72 15.8197 16.7642 15.5002 16.7642C14.72 16.7642 14.124 16.619 13.3807 16.2529C12.3239 15.7227 11.6543 15.0347 11.1382 13.949C10.9723 13.6018 10.7942 13.1158 10.745 12.8633C10.6037 12.2194 10.616 11.2158 10.7696 10.5972C10.9293 9.94704 11.3594 9.06333 11.7526 8.57098C12.367 7.81352 13.4052 7.14443 14.3575 6.90457C14.9842 6.74676 16.0163 6.74676 16.6429 6.91088Z" fill="white"/>
</svg>
