<svg width="32" height="32" viewBox="0 0 32 32" fill="none" xmlns="http://www.w3.org/2000/svg">
<rect width="32" height="32" rx="7" fill="#0077FF"/>
<path d="M25.5442 10.8137C25.6816 10.345 25.5442 10 24.8833 10H22.6965C22.1395 10 21.8834 10.2962 21.746 10.6262C21.746 10.6262 20.6321 13.3675 19.0579 15.145C18.5493 15.6587 18.3154 15.8238 18.0369 15.8238C17.8995 15.8238 17.6879 15.6588 17.6879 15.19V10.8137C17.6879 10.2512 17.532 10 17.0716 10H13.6335C13.2845 10 13.0766 10.2625 13.0766 10.5063C13.0766 11.0387 13.8637 11.1625 13.9454 12.6625V15.9175C13.9454 16.63 13.8192 16.7612 13.5407 16.7612C12.7981 16.7612 10.9937 14.0087 9.92443 10.8588C9.70909 10.2475 9.49746 10 8.93683 10H6.74999C6.12624 10 6 10.2962 6 10.6262C6 11.2112 6.74256 14.1175 9.45662 17.9575C11.2648 20.5788 13.8117 22 16.1285 22C17.5208 22 17.6916 21.685 17.6916 21.1413C17.6916 18.6363 17.5654 18.4 18.2634 18.4C18.5864 18.4 19.1433 18.565 20.4428 19.8288C21.9279 21.3288 22.173 22 23.0046 22H25.1915C25.8152 22 26.1308 21.685 25.9489 21.0625C25.5331 19.7537 22.7225 17.0612 22.5962 16.8812C22.2732 16.4612 22.366 16.2738 22.5962 15.8988C22.5999 15.895 25.2694 12.1 25.5442 10.8137Z" fill="white"/>
</svg>
