<svg width="32" height="32" viewBox="0 0 32 32" fill="none" xmlns="http://www.w3.org/2000/svg">
<rect width="32" height="32" rx="7" fill="#0088CC"/>
<path d="M8.09976 15.4575C12.3955 13.3408 15.2594 11.9453 16.6913 11.271C20.7845 9.3458 21.634 9.01143 22.1888 9.0001C22.3108 8.99789 22.5825 9.032 22.7597 9.19411C22.9071 9.33083 22.9485 9.51572 22.9692 9.64554C22.9876 9.77522 23.013 10.0708 22.9922 10.3015C22.7712 12.9369 21.8113 19.3322 21.3232 22.284C21.1183 23.5329 20.7108 23.9517 20.3172 23.9926C19.4608 24.0816 18.8116 23.353 17.9828 22.7387C16.6867 21.777 15.9546 21.1785 14.6954 20.2403C13.2404 19.1559 14.1843 18.5598 15.0131 17.5858C15.2295 17.3309 19.0003 13.452 19.0717 13.1002C19.0809 13.0562 19.0901 12.8921 19.0027 12.8057C18.9175 12.719 18.7909 12.7486 18.6988 12.7721C18.5675 12.8054 16.4979 14.3544 12.483 17.4187C11.896 17.8754 11.3642 18.0981 10.8853 18.0864C10.3604 18.0736 9.34751 17.7499 8.59472 17.4733C7.67386 17.134 6.93948 16.9546 7.00394 16.3783C7.03617 16.0783 7.40221 15.7713 8.09976 15.4575Z" fill="white"/>
</svg>
