<svg width="60" height="40" viewBox="0 0 60 40" fill="none" xmlns="http://www.w3.org/2000/svg">
<path d="M18 20C23.8031 20 28.5 15.5268 28.5 10C28.5 4.47321 23.8031 0 18 0C12.1969 0 7.5 4.47321 7.5 10C7.5 15.5268 12.1969 20 18 20ZM25.2 22.8571H24.4219C22.4719 23.75 20.3063 24.2857 18 24.2857C15.6937 24.2857 13.5375 23.75 11.5781 22.8571H10.8C4.8375 22.8571 0 27.4643 0 33.1429V35.7143C0 38.0804 2.01562 40 4.5 40H31.5C33.9844 40 36 38.0804 36 35.7143V33.1429C36 27.4643 31.1625 22.8571 25.2 22.8571ZM45 20C49.9688 20 54 16.1607 54 11.4286C54 6.69643 49.9688 2.85714 45 2.85714C40.0312 2.85714 36 6.69643 36 11.4286C36 16.1607 40.0312 20 45 20ZM49.5 22.8571H49.1438C47.8406 23.2857 46.4625 23.5714 45 23.5714C43.5375 23.5714 42.1594 23.2857 40.8562 22.8571H40.5C38.5875 22.8571 36.825 23.3839 35.2781 24.2321C37.5656 26.5804 39 29.6964 39 33.1429V36.5714C39 36.7679 38.9531 36.9554 38.9437 37.1429H55.5C57.9844 37.1429 60 35.2232 60 32.8571C60 27.3304 55.3031 22.8571 49.5 22.8571Z" fill="white"/>
</svg>
