<svg width="48" height="48" viewBox="0 0 48 48" fill="none" xmlns="http://www.w3.org/2000/svg">
<path d="M35.3684 4.8C34.6984 4.8 34.0558 4.54714 33.582 4.09706C33.1083 3.64697 32.8421 3.03652 32.8421 2.4C32.8421 1.76348 33.1083 1.15303 33.582 0.702944C34.0558 0.252856 34.6984 0 35.3684 0H45.4737C46.1437 0 46.7863 0.252856 47.2601 0.702944C47.7338 1.15303 48 1.76348 48 2.4V12C48 12.6365 47.7338 13.247 47.2601 13.6971C46.7863 14.1471 46.1437 14.4 45.4737 14.4C44.8037 14.4 44.1611 14.1471 43.6873 13.6971C43.2135 13.247 42.9474 12.6365 42.9474 12V8.1936L28.3124 22.0968C27.8387 22.5467 27.1962 22.7995 26.5263 22.7995C25.8564 22.7995 25.214 22.5467 24.7402 22.0968L17.6842 15.3936L4.31242 28.0968C3.83595 28.534 3.1978 28.7759 2.53541 28.7704C1.87302 28.7649 1.23938 28.5125 0.770985 28.0676C0.302585 27.6226 0.0368954 27.0206 0.0311394 26.3914C0.0253834 25.7621 0.280022 25.1558 0.74021 24.7032L15.8981 10.3032C16.3719 9.85327 17.0143 9.60051 17.6842 9.60051C18.3541 9.60051 18.9966 9.85327 19.4703 10.3032L26.5263 17.0064L39.3752 4.8H35.3684ZM5.05263 38.4V45.6C5.05263 46.2365 4.78647 46.847 4.31269 47.2971C3.83891 47.7471 3.19634 48 2.52632 48C1.8563 48 1.21372 47.7471 0.739941 47.2971C0.266165 46.847 0 46.2365 0 45.6V38.4C0 37.7635 0.266165 37.153 0.739941 36.7029C1.21372 36.2529 1.8563 36 2.52632 36C3.19634 36 3.83891 36.2529 4.31269 36.7029C4.78647 37.153 5.05263 37.7635 5.05263 38.4ZM17.6842 28.8C17.6842 28.1635 17.418 27.553 16.9443 27.1029C16.4705 26.6529 15.8279 26.4 15.1579 26.4C14.4879 26.4 13.8453 26.6529 13.3715 27.1029C12.8977 27.553 12.6316 28.1635 12.6316 28.8V45.6C12.6316 46.2365 12.8977 46.847 13.3715 47.2971C13.8453 47.7471 14.4879 48 15.1579 48C15.8279 48 16.4705 47.7471 16.9443 47.2971C17.418 46.847 17.6842 46.2365 17.6842 45.6V28.8ZM27.7895 31.2C28.4595 31.2 29.1021 31.4529 29.5758 31.9029C30.0496 32.353 30.3158 32.9635 30.3158 33.6V45.6C30.3158 46.2365 30.0496 46.847 29.5758 47.2971C29.1021 47.7471 28.4595 48 27.7895 48C27.1195 48 26.4769 47.7471 26.0031 47.2971C25.5293 46.847 25.2632 46.2365 25.2632 45.6V33.6C25.2632 32.9635 25.5293 32.353 26.0031 31.9029C26.4769 31.4529 27.1195 31.2 27.7895 31.2ZM42.9474 21.6C42.9474 20.9635 42.6812 20.353 42.2074 19.9029C41.7337 19.4529 41.0911 19.2 40.4211 19.2C39.751 19.2 39.1085 19.4529 38.6347 19.9029C38.1609 20.353 37.8947 20.9635 37.8947 21.6V45.6C37.8947 46.2365 38.1609 46.847 38.6347 47.2971C39.1085 47.7471 39.751 48 40.4211 48C41.0911 48 41.7337 47.7471 42.2074 47.2971C42.6812 46.847 42.9474 46.2365 42.9474 45.6V21.6Z" fill="white"/>
</svg>
