<svg width="30" height="45" viewBox="0 0 30 45" fill="none" xmlns="http://www.w3.org/2000/svg">
<path d="M1.33224 0.198384C0.473684 0.615042 0 1.44836 0 2.52125C0 3.29207 0.226974 3.86497 0.700658 4.34413C1.38158 5.0212 1.125 5.00037 8.0625 5.00037C14.2796 5.00037 14.3586 5.01078 13.9638 5.19828C13.7072 5.32328 12.4934 6.542 10.4013 8.7607C7.02632 12.3648 7.00658 12.3856 7.00658 13.4064C7.00658 14.7606 8.12171 15.9376 9.4046 15.9376C10.2138 15.9376 10.5592 15.7397 11.625 14.646L12.6316 13.6148V22.5V31.3852L11.625 30.354C10.5592 29.2603 10.2138 29.0624 9.4046 29.0624C8.12171 29.0624 7.00658 30.2394 7.00658 31.5936C7.00658 32.6144 7.02632 32.6352 10.4013 36.2393C12.4934 38.458 13.7072 39.6767 13.9638 39.8017C14.3586 39.9892 14.2796 39.9996 8.04276 39.9996C2.10197 39.9996 1.70724 40.0205 1.33224 40.1975C0.483553 40.6142 0 41.4475 0 42.4996C0 43.5516 0.483553 44.385 1.33224 44.8016C1.70724 44.9891 2.27961 44.9995 14.9803 44.9995C29.6053 44.9995 28.5987 45.0412 29.2993 44.3433C29.7829 43.8537 30 43.3016 30 42.4996C30 41.6975 29.7829 41.1454 29.2993 40.6559C28.6184 39.9788 28.875 39.9996 21.9375 39.9996C15.7204 39.9996 15.6414 39.9892 16.0362 39.8017C16.2928 39.6767 17.5066 38.458 19.5987 36.2393C22.9737 32.6352 22.9934 32.6144 22.9934 31.5936C22.9934 30.2394 21.8783 29.0624 20.5954 29.0624C19.7862 29.0624 19.4408 29.2603 18.3849 30.354L17.3684 31.3852V22.5V13.6148L18.3849 14.646C19.4408 15.7397 19.7862 15.9376 20.5954 15.9376C21.8783 15.9376 22.9934 14.7606 22.9934 13.4064C22.9934 12.3856 22.9737 12.3648 19.5987 8.7607C17.5066 6.542 16.2928 5.32328 16.0362 5.19828C15.6414 5.01078 15.7204 5.00037 21.9375 5.00037C28.875 5.00037 28.6184 5.0212 29.2993 4.34413C29.7829 3.85456 30 3.30249 30 2.50042C30 1.69835 29.7829 1.14628 29.2993 0.656707C28.5987 -0.0411947 29.6053 0.000471125 14.9803 0.000471125C2.27961 0.000471125 1.70724 0.0108876 1.33224 0.198384Z" fill="white"/>
</svg>
