<svg width="38" height="94" viewBox="0 0 38 94" fill="none" xmlns="http://www.w3.org/2000/svg">
<path d="M34 38C33.1111 27.3963 26.8889 8.67073 18.8889 1C11.1107 8.44512 3.99966 27.8476 4 38" stroke="white"/>
<path d="M3 52C3.00005 71.0437 10.9149 90.6699 14.4326 93L18.1702 86.5027L21.688 93C25.6454 87.0255 34 72.612 34 52" stroke="white"/>
<path d="M4.52633 50.182C3.69433 50.182 2.90566 50.1127 2.16033 49.974C1.42366 49.8267 0.855995 49.662 0.457328 49.48V46.906H3.31733C3.31733 47.1747 3.378 47.3697 3.49933 47.491C3.62066 47.6123 3.84166 47.673 4.16233 47.673C4.43099 47.673 4.62166 47.634 4.73433 47.556C4.85566 47.4693 4.91633 47.3437 4.91633 47.179C4.91633 47.0403 4.85999 46.9233 4.74733 46.828C4.63466 46.724 4.43966 46.62 4.16233 46.516L3.04433 46.126C2.08233 45.762 1.38899 45.333 0.964328 44.839C0.548328 44.345 0.340328 43.6777 0.340328 42.837C0.340328 41.8143 0.673995 41.0387 1.34133 40.51C2.01733 39.9727 3.13966 39.704 4.70833 39.704C5.46233 39.704 6.16866 39.782 6.82733 39.938C7.49466 40.0853 8.032 40.2847 8.43933 40.536V42.863H5.83933C5.83933 42.4297 5.57066 42.213 5.03333 42.213C4.77333 42.213 4.58699 42.2477 4.47433 42.317C4.37033 42.3777 4.31833 42.4903 4.31833 42.655C4.31833 42.8023 4.37899 42.9193 4.50033 43.006C4.63033 43.0927 4.83833 43.1837 5.12433 43.279L6.25533 43.669C7.17399 43.981 7.84133 44.3883 8.25733 44.891C8.682 45.385 8.89433 46.035 8.89433 46.841C8.89433 47.9417 8.52166 48.7737 7.77633 49.337C7.03966 49.9003 5.95633 50.182 4.52633 50.182ZM14.1181 50.182C12.7574 50.182 11.7044 49.883 10.9591 49.285C10.2224 48.687 9.85409 47.7163 9.85409 46.373V42.018H9.20409V39.886H14.0141V42.018H13.4941V47.036C13.4941 47.322 13.5548 47.5343 13.6761 47.673C13.8061 47.803 13.9968 47.868 14.2481 47.868C14.4994 47.868 14.6858 47.803 14.8071 47.673C14.9371 47.5343 15.0021 47.322 15.0021 47.036V42.018H14.4821V39.886H18.9411V42.018H18.2911V46.373C18.2911 47.7163 17.9314 48.687 17.2121 49.285C16.4928 49.883 15.4614 50.182 14.1181 50.182ZM19.4123 47.868H20.0623V42.018H19.4123V39.886H25.3793C26.4973 39.886 27.351 40.1157 27.9403 40.575C28.5297 41.0343 28.8243 41.7797 28.8243 42.811C28.8243 43.3917 28.7073 43.8943 28.4733 44.319C28.2393 44.7437 27.9057 45.0383 27.4723 45.203L27.4853 45.333C28.3173 45.463 28.7333 45.9743 28.7333 46.867V47.868H29.3443V50H25.2233V46.945C25.2233 46.607 25.1713 46.3513 25.0673 46.178C24.972 46.0047 24.816 45.8877 24.5993 45.827C24.3913 45.7663 24.0923 45.736 23.7023 45.736V47.868H24.5603V50H19.4123V47.868ZM24.4043 44.15C24.6557 44.15 24.842 44.085 24.9633 43.955C25.0933 43.8163 25.1583 43.604 25.1583 43.318V42.85C25.1583 42.564 25.0933 42.356 24.9633 42.226C24.842 42.0873 24.6557 42.018 24.4043 42.018H23.7023V44.15H24.4043ZM29.8098 50V47.868H30.4598V42.018H29.8098V39.886H37.5838V43.253H35.2828V42.018H34.0998V44.176H36.0628V45.658H34.0998V47.868H35.8028V50H29.8098Z" fill="white"/>
<path d="M13.0717 55.176H11.5237V54.474H10.9477V58.524H11.5777V60H7.79773V58.524H8.42773V54.474H7.85173V55.176H6.30373V52.998H13.0717V55.176ZM13.3802 58.524H13.8302V54.474H13.3802V52.998H17.5112C18.2852 52.998 18.8762 53.157 19.2842 53.475C19.6922 53.793 19.8962 54.309 19.8962 55.023C19.8962 55.425 19.8152 55.773 19.6532 56.067C19.4912 56.361 19.2602 56.565 18.9602 56.679L18.9692 56.769C19.5452 56.859 19.8332 57.213 19.8332 57.831V58.524H20.2562V60H17.4032V57.885C17.4032 57.651 17.3672 57.474 17.2952 57.354C17.2292 57.234 17.1212 57.153 16.9712 57.111C16.8272 57.069 16.6202 57.048 16.3502 57.048V58.524H16.9442V60H13.3802V58.524ZM16.8362 55.95C17.0102 55.95 17.1392 55.905 17.2232 55.815C17.3132 55.719 17.3582 55.572 17.3582 55.374V55.05C17.3582 54.852 17.3132 54.708 17.2232 54.618C17.1392 54.522 17.0102 54.474 16.8362 54.474H16.3502V55.95H16.8362ZM20.5784 60V58.524H21.0284V54.474H20.5784V52.998H23.9984V54.474H23.5484V58.524H23.9984V60H20.5784ZM24.3577 58.524H24.8077V54.474H24.3577V52.998H28.3087C29.0827 52.998 29.6737 53.166 30.0817 53.502C30.4897 53.832 30.6937 54.369 30.6937 55.113C30.6937 55.857 30.4897 56.397 30.0817 56.733C29.6737 57.063 29.0827 57.228 28.3087 57.228H27.3277V58.524H28.1917V60H24.3577V58.524ZM27.6337 55.95C27.9817 55.95 28.1557 55.758 28.1557 55.374V55.05C28.1557 54.852 28.1107 54.708 28.0207 54.618C27.9367 54.522 27.8077 54.474 27.6337 54.474H27.3277V55.95H27.6337Z" fill="white"/>
<path d="M6 66.4259C7.58685 65.3735 10.1802 63.056 12.9577 64.4167C15.8873 65.8519 15.1549 67 19.1831 67C21.0141 67 22.8451 66.1389 24.3099 65.2778C25.7746 64.4167 26.1408 64.1297 27.6056 64.1297C29.0704 64.1297 30.9014 64.9908 32 66.1389" stroke="white" stroke-linecap="round"/>
<path d="M10 71.6173C11.0986 70.9157 12.894 69.3707 14.8169 70.2778C16.8451 71.2346 16.338 72 19.1268 72C20.3944 72 21.662 71.4259 22.6761 70.8519C23.6901 70.2778 23.9437 70.0865 24.9577 70.0865C25.9718 70.0865 27.2394 70.6605 28 71.4259" stroke="white" stroke-linecap="round"/>
</svg>
