<svg width="50" height="46" viewBox="0 0 50 46" fill="none" xmlns="http://www.w3.org/2000/svg">
<path d="M3.25428 45.8608L25.2208 38.2712C28.5741 37.1199 29.5461 32.9609 27.019 30.5172L16.0114 19.8731C13.4843 17.4294 9.2076 18.3693 7.99264 21.6119L0.143975 42.8532C-0.536404 44.7329 1.31034 46.5187 3.25428 45.8608ZM30.1536 24.032L42.449 12.1426C42.7312 11.869 43.0663 11.652 43.4353 11.504C43.8044 11.3559 44.2 11.2797 44.5995 11.2797C44.999 11.2797 45.3946 11.3559 45.7636 11.504C46.1326 11.652 46.4678 11.869 46.75 12.1426L46.8958 12.2835C47.6004 12.965 48.7668 12.965 49.4715 12.2835C50.1762 11.6021 50.1762 10.4743 49.4715 9.79286L49.3257 9.65187C48.0699 8.44401 46.3707 7.76597 44.5995 7.76597C42.8283 7.76597 41.1291 8.44401 39.8733 9.65187L27.5778 21.5414C26.8732 22.2228 26.8732 23.3506 27.5778 24.032C28.2825 24.7135 29.4489 24.7135 30.1536 24.032ZM18.0039 12.0016L17.8581 12.1426C17.1535 12.824 17.1535 13.9518 17.8581 14.6332C18.5628 15.3147 19.7292 15.3147 20.4339 14.6332L20.5797 14.4923C21.8288 13.2779 22.5299 11.6348 22.5299 9.92209C22.5299 8.20934 21.8288 6.56624 20.5797 5.35192L20.4582 5.23443C19.7292 4.52952 18.5628 4.52952 17.8581 5.23443C17.1535 5.91585 17.1535 7.0437 17.8581 7.72512L18.0039 7.8661C19.1703 8.99396 19.1703 10.8737 18.0039 12.0016ZM35.0134 23.7501L32.4377 26.2408C31.733 26.9222 31.733 28.05 32.4377 28.7314C33.1424 29.4129 34.3087 29.4129 35.0134 28.7314L37.5891 26.2408C37.8713 25.9672 38.2065 25.7502 38.5755 25.6022C38.9445 25.4541 39.3401 25.3779 39.7396 25.3779C40.1392 25.3779 40.5348 25.4541 40.9038 25.6022C41.2728 25.7502 41.608 25.9672 41.8901 26.2408L44.5144 28.7784C45.2191 29.4599 46.3855 29.4599 47.0902 28.7784C47.7948 28.097 47.7948 26.9692 47.0902 26.2878L44.4658 23.7501C43.2101 22.5422 41.5109 21.8642 39.7396 21.8642C37.9684 21.8642 36.2692 22.5422 35.0134 23.7501ZM30.1536 9.65187L22.718 16.842C22.0133 17.5234 22.0133 18.6512 22.718 19.3326C23.4227 20.0141 24.589 20.0141 25.2937 19.3326L32.7293 12.1426C33.9784 10.9282 34.6796 9.28514 34.6796 7.57239C34.6796 5.85964 33.9784 4.21654 32.7293 3.00222L30.1536 0.511534C29.8106 0.183797 29.3479 0 28.8657 0C28.3835 0 27.9208 0.183797 27.5778 0.511534C26.8732 1.19295 26.8732 2.3208 27.5778 3.00222L30.1536 5.4929C31.3199 6.64426 31.3199 8.52402 30.1536 9.65187Z" fill="white"/>
</svg>
