<svg width="16" height="15" viewBox="0 0 16 15" fill="none" xmlns="http://www.w3.org/2000/svg">
<path fill-rule="evenodd" clip-rule="evenodd" d="M11.7701 14.9979C10.6161 14.9581 7.34581 14.5344 3.92082 11.3249C0.496633 8.11464 0.0454705 5.05009 0.00219731 3.96773C-0.0619111 2.31828 1.28597 0.716147 2.843 0.0904675C3.0305 0.0145799 3.23582 -0.0143128 3.43883 0.00662454C3.64184 0.0275619 3.83555 0.0976099 4.00096 0.209895C5.28312 1.0857 6.16782 2.41066 6.9275 3.45246C7.09465 3.68135 7.16612 3.95988 7.12829 4.23497C7.09046 4.51007 6.94597 4.7625 6.72236 4.94418L5.15891 6.03255C5.08338 6.08367 5.03021 6.15876 5.00928 6.24385C4.98835 6.32895 5.00109 6.41827 5.04512 6.49523C5.39932 7.09838 6.02919 7.99671 6.7504 8.67272C7.47243 9.34872 8.47572 9.97816 9.16408 10.3477C9.25039 10.3931 9.35198 10.4058 9.44797 10.3832C9.54396 10.3606 9.62705 10.3043 9.68016 10.226L10.6979 8.77412C10.885 8.54116 11.161 8.38509 11.4681 8.33861C11.7752 8.29213 12.0896 8.35883 12.3455 8.52475C13.473 9.25634 14.7888 10.0713 15.752 11.2273C15.8815 11.3834 15.9639 11.5693 15.9906 11.7655C16.0172 11.9618 15.9871 12.1611 15.9035 12.3427C15.2327 13.8096 13.5355 15.0587 11.7701 14.9979Z" fill="white"/>
</svg>
