<svg width="26" height="47" viewBox="0 0 26 47" fill="none" xmlns="http://www.w3.org/2000/svg">
<path d="M16.3898 0.170767C16.2247 0.27174 15.9989 0.446147 15.9034 0.565478C15.6515 0.850037 0.366134 24.1471 0.201121 24.4868C-0.267863 25.4414 0.114273 26.6806 1.02619 27.1671C1.33884 27.3415 1.54728 27.3507 5.62918 27.3507H9.89346L9.85003 27.5527C9.65896 28.3513 6.83638 44.8649 6.83638 45.1311C6.84506 45.8011 7.40089 46.664 7.99147 46.8935C8.63415 47.1505 9.6937 46.921 10.1019 46.4345C10.3016 46.205 25.561 20.9895 25.7955 20.5121C26.2645 19.5391 25.8997 18.2907 24.9791 17.8042C24.6665 17.6298 24.458 17.6206 20.6888 17.6206C18.0138 17.6206 16.7371 17.5931 16.7371 17.5289C16.7371 17.4738 17.2843 14.004 17.953 9.80905C18.6218 5.6141 19.1689 2.03417 19.1689 1.85058C19.1602 1.18967 18.5957 0.326816 18.0138 0.0973329C17.623 -0.0587155 16.7371 -0.0219982 16.3898 0.170767Z" fill="white"/>
</svg>
