<svg width="50" height="48" viewBox="0 0 50 48" fill="none" xmlns="http://www.w3.org/2000/svg">
<path d="M42.5 4.8H40V2.4C40 0.96 39 0 37.5 0C36 0 35 0.96 35 2.4V4.8H15V2.4C15 0.96 14 0 12.5 0C11 0 10 0.96 10 2.4V4.8H7.5C3.25 4.8 0 7.92 0 12V14.4H50V12C50 7.92 46.75 4.8 42.5 4.8ZM0 40.8C0 44.88 3.25 48 7.5 48H42.5C46.75 48 50 44.88 50 40.8V19.2H0V40.8ZM37.5 24C39 24 40 24.96 40 26.4C40 27.84 39 28.8 37.5 28.8C36 28.8 35 27.84 35 26.4C35 24.96 36 24 37.5 24ZM37.5 33.6C39 33.6 40 34.56 40 36C40 37.44 39 38.4 37.5 38.4C36 38.4 35 37.44 35 36C35 34.56 36 33.6 37.5 33.6ZM25 24C26.5 24 27.5 24.96 27.5 26.4C27.5 27.84 26.5 28.8 25 28.8C23.5 28.8 22.5 27.84 22.5 26.4C22.5 24.96 23.5 24 25 24ZM25 33.6C26.5 33.6 27.5 34.56 27.5 36C27.5 37.44 26.5 38.4 25 38.4C23.5 38.4 22.5 37.44 22.5 36C22.5 34.56 23.5 33.6 25 33.6ZM12.5 24C14 24 15 24.96 15 26.4C15 27.84 14 28.8 12.5 28.8C11 28.8 10 27.84 10 26.4C10 24.96 11 24 12.5 24ZM12.5 33.6C14 33.6 15 34.56 15 36C15 37.44 14 38.4 12.5 38.4C11 38.4 10 37.44 10 36C10 34.56 11 33.6 12.5 33.6Z" fill="white"/>
</svg>
