<svg width="25" height="25" viewBox="0 0 25 25" fill="none" xmlns="http://www.w3.org/2000/svg">
<rect width="25" height="25" rx="7" fill="#0088CC"/>
<path d="M5.89355 12.166C9.38387 10.4727 11.7107 9.35621 12.8742 8.81684C16.1999 7.27664 16.8901 7.00914 17.3409 7.00008C17.44 6.99831 17.6608 7.0256 17.8048 7.15529C17.9245 7.26466 17.9582 7.41258 17.975 7.51643C17.99 7.62018 18.0105 7.85664 17.9937 8.04122C17.8141 10.1495 17.0341 15.2657 16.6376 17.6272C16.4711 18.6263 16.14 18.9613 15.8202 18.9941C15.1244 19.0653 14.5969 18.4824 13.9235 17.9909C12.8704 17.2216 12.2756 16.7428 11.2525 15.9922C10.0703 15.1247 10.8372 14.6478 11.5106 13.8687C11.6864 13.6647 14.7503 10.5616 14.8083 10.2802C14.8157 10.245 14.8232 10.1137 14.7522 10.0445C14.6829 9.97516 14.5801 9.99891 14.5052 10.0177C14.3986 10.0443 12.7171 11.2835 9.45495 13.7349C8.97798 14.1003 8.54589 14.2785 8.15683 14.2691C7.73037 14.2589 6.90735 13.9999 6.29571 13.7787C5.54751 13.5072 4.95083 13.3637 5.0032 12.9026C5.02939 12.6626 5.3268 12.417 5.89355 12.166Z" fill="white"/>
</svg>
