<svg width="188" height="184" viewBox="0 0 188 184" fill="none" xmlns="http://www.w3.org/2000/svg">
<path d="M178.371 73.4873C177.957 73.6163 177.615 73.8564 177.346 74.2078C177.077 74.5592 176.897 74.9946 176.807 75.514C176.718 76.0382 176.727 76.6181 176.836 77.2537C176.944 77.8799 177.103 78.4147 177.314 78.8583C177.531 79.3011 177.785 79.6259 178.077 79.8328C178.37 80.0443 178.683 80.1215 179.017 80.0644C179.3 80.016 179.518 79.906 179.673 79.7341C179.828 79.567 179.932 79.3141 179.986 78.9754C180.045 78.6406 180.061 78.1847 180.035 77.6076L179.939 75.2687C179.905 74.3878 179.962 73.6584 180.11 73.0806C180.258 72.5075 180.506 72.0604 180.853 71.7394C181.205 71.4175 181.67 71.207 182.249 71.108C182.888 70.9985 183.479 71.0984 184.022 71.4079C184.568 71.7165 185.032 72.2066 185.414 72.8779C185.8 73.5532 186.076 74.3687 186.239 75.3245C186.401 76.2661 186.403 77.1307 186.248 77.9182C186.093 78.7104 185.796 79.367 185.357 79.8879C184.923 80.408 184.378 80.746 183.722 80.9019L183.398 79.0092C183.762 78.8985 184.059 78.6853 184.291 78.3694C184.523 78.0535 184.674 77.652 184.746 77.1648C184.823 76.6815 184.81 76.1409 184.708 75.543C184.609 74.9686 184.46 74.4757 184.258 74.0643C184.058 73.6576 183.818 73.357 183.538 73.1627C183.258 72.973 182.958 72.9056 182.638 72.9604C182.38 73.0046 182.177 73.1072 182.03 73.268C181.888 73.428 181.786 73.666 181.724 73.9819C181.667 74.3018 181.648 74.7243 181.665 75.2496L181.737 77.6216C181.77 78.6094 181.721 79.3933 181.588 79.9734C181.46 80.5574 181.233 80.9985 180.906 81.2967C180.58 81.5949 180.122 81.7943 179.534 81.895C178.861 82.0101 178.233 81.9044 177.649 81.5779C177.07 81.2505 176.578 80.7339 176.171 80.0281C175.764 79.3223 175.477 78.475 175.307 77.4863C175.135 76.4788 175.132 75.5561 175.298 74.7183C175.47 73.8844 175.793 73.1943 176.266 72.6481C176.739 72.1066 177.333 71.7554 178.046 71.5946L178.371 73.4873Z" fill="url(#paint0_linear_546_5276)"/>
<path d="M181.237 86.7919C180.602 86.7978 180.05 86.9319 179.58 87.1941C179.114 87.4564 178.758 87.8299 178.509 88.3146C178.261 88.8041 178.14 89.3809 178.146 90.0448C178.153 90.7135 178.285 91.2879 178.542 91.7679C178.8 92.248 179.164 92.6149 179.634 92.8685C180.109 93.122 180.664 93.2459 181.298 93.2401L187.427 93.1836L187.445 95.075L181.245 95.1322C180.309 95.1408 179.482 94.9335 178.762 94.5102C178.042 94.0917 177.48 93.4974 177.076 92.7273C176.673 91.9571 176.466 91.0682 176.457 90.0604C176.447 89.0525 176.637 88.1599 177.025 87.3825C177.414 86.6051 177.964 85.9981 178.676 85.5616C179.388 85.1299 180.212 84.9098 181.147 84.9012L187.347 84.844L187.365 86.7354L181.237 86.7919Z" fill="url(#paint1_linear_546_5276)"/>
<path d="M175.305 105.889L180.096 102.97L180.423 100.831L176.176 100.181L176.462 98.3113L187.078 99.9373L186.194 105.731C186.082 106.467 185.848 107.098 185.492 107.624C185.141 108.154 184.698 108.539 184.165 108.776C183.635 109.018 183.054 109.091 182.422 108.994C181.837 108.905 181.337 108.686 180.922 108.337C180.506 107.988 180.198 107.54 179.997 106.992C179.796 106.444 179.722 105.834 179.777 105.161L174.964 108.127L175.305 105.889ZM185.179 101.56L182.008 101.074L181.435 104.828C181.373 105.239 181.382 105.605 181.463 105.927C181.544 106.253 181.692 106.517 181.907 106.719C182.123 106.922 182.391 107.047 182.712 107.096C183.207 107.172 183.622 107.05 183.956 106.729C184.294 106.413 184.51 105.942 184.606 105.314L185.179 101.56Z" fill="url(#paint2_linear_546_5276)"/>
<path d="M182.046 122.046L180.456 121.563L182.479 114.885L179.573 114.003L177.617 120.462L176.028 119.979L177.984 113.52L173.79 112.247L174.338 110.437L184.616 113.557L182.046 122.046Z" fill="url(#paint3_linear_546_5276)"/>
<path d="M181.214 124.268L176.718 134.058L175.209 133.364L177.062 129.328L168.813 125.532L169.602 123.814L177.851 127.609L179.705 123.573L181.214 124.268Z" fill="url(#paint4_linear_546_5276)"/>
<path d="M161.852 137.533L167.42 136.85L168.599 135.036L164.997 132.692L166.027 131.107L175.032 136.967L171.84 141.88C171.434 142.505 170.961 142.983 170.421 143.315C169.882 143.654 169.32 143.821 168.737 143.817C168.154 143.819 167.595 143.646 167.058 143.297C166.562 142.974 166.197 142.568 165.962 142.079C165.727 141.591 165.631 141.055 165.673 140.473C165.715 139.891 165.9 139.305 166.227 138.714L160.619 139.431L161.852 137.533ZM172.633 137.662L169.943 135.912L167.875 139.095C167.649 139.443 167.507 139.781 167.448 140.107C167.387 140.438 167.413 140.74 167.526 141.013C167.639 141.285 167.832 141.511 168.104 141.688C168.524 141.961 168.953 142.021 169.389 141.866C169.827 141.718 170.219 141.378 170.565 140.845L172.633 137.662Z" fill="url(#paint5_linear_546_5276)"/>
<path d="M159.066 141.184L167.406 147.957L166.215 149.426L157.875 142.652L159.066 141.184Z" fill="url(#paint6_linear_546_5276)"/>
<path d="M159.534 156.711C158.98 157.271 158.393 157.661 157.773 157.88C157.154 158.1 156.548 158.142 155.957 158.007C155.365 157.878 154.834 157.581 154.362 157.114C153.89 156.647 153.585 156.116 153.446 155.523C153.308 154.936 153.345 154.331 153.557 153.708C153.77 153.086 154.153 152.494 154.706 151.934L157.374 149.234L154.563 146.453L155.892 145.108L163.53 152.666L159.534 156.711ZM155.918 153.032C155.619 153.334 155.412 153.646 155.295 153.967C155.176 154.292 155.151 154.607 155.22 154.91C155.292 155.217 155.456 155.497 155.711 155.748C155.965 156 156.245 156.159 156.549 156.225C156.856 156.294 157.172 156.267 157.495 156.144C157.815 156.024 158.124 155.813 158.423 155.511L161.04 152.862L158.535 150.383L155.918 153.032Z" fill="url(#paint7_linear_546_5276)"/>
<path d="M145.39 159.408C145.651 159.215 145.934 159.1 146.24 159.064C146.545 159.027 146.839 159.071 147.121 159.195C147.403 159.32 147.64 159.512 147.833 159.773C148.027 160.034 148.141 160.318 148.178 160.624C148.214 160.93 148.17 161.224 148.046 161.506C147.923 161.788 147.73 162.025 147.469 162.218C147.209 162.412 146.925 162.526 146.62 162.563C146.314 162.599 146.02 162.555 145.738 162.431C145.456 162.307 145.219 162.114 145.026 161.853C144.833 161.592 144.718 161.309 144.681 161.003C144.645 160.697 144.689 160.403 144.813 160.121C144.937 159.839 145.129 159.601 145.39 159.408Z" fill="url(#paint8_linear_546_5276)"/>
<path d="M136.689 164.987C136.441 164.632 136.108 164.379 135.692 164.229C135.276 164.079 134.807 164.039 134.285 164.111C133.758 164.184 133.209 164.369 132.637 164.666C132.073 164.958 131.612 165.272 131.254 165.608C130.898 165.948 130.666 166.289 130.558 166.63C130.446 166.974 130.467 167.296 130.623 167.597C130.755 167.852 130.926 168.027 131.137 168.122C131.343 168.219 131.616 168.242 131.954 168.191C132.291 168.145 132.73 168.023 133.271 167.823L135.47 167.023C136.298 166.723 137.01 166.556 137.605 166.522C138.196 166.49 138.697 166.591 139.108 166.825C139.521 167.062 139.863 167.442 140.133 167.964C140.431 168.541 140.516 169.135 140.386 169.745C140.258 170.36 139.932 170.951 139.409 171.518C138.883 172.092 138.19 172.601 137.33 173.047C136.482 173.486 135.66 173.751 134.863 173.841C134.061 173.934 133.346 173.85 132.717 173.589C132.09 173.333 131.602 172.916 131.255 172.337L132.958 171.455C133.174 171.768 133.468 171.987 133.839 172.112C134.21 172.237 134.638 172.26 135.124 172.181C135.607 172.108 136.118 171.932 136.657 171.653C137.174 171.385 137.598 171.093 137.928 170.776C138.255 170.462 138.468 170.142 138.568 169.816C138.663 169.492 138.637 169.185 138.487 168.897C138.367 168.664 138.207 168.501 138.01 168.41C137.814 168.323 137.556 168.298 137.237 168.335C136.915 168.377 136.507 168.487 136.012 168.663L133.775 169.45C132.845 169.781 132.083 169.972 131.49 170.02C130.896 170.076 130.407 169.993 130.023 169.772C129.64 169.551 129.312 169.175 129.037 168.645C128.723 168.038 128.633 167.407 128.767 166.752C128.902 166.1 129.245 165.474 129.793 164.872C130.342 164.271 131.061 163.739 131.951 163.278C132.858 162.808 133.736 162.526 134.584 162.43C135.43 162.342 136.185 162.44 136.849 162.726C137.509 163.013 138.023 163.473 138.393 164.104L136.689 164.987Z" fill="url(#paint9_linear_546_5276)"/>
<path d="M124.961 171.726C124.757 171.124 124.457 170.641 124.061 170.276C123.666 169.916 123.2 169.694 122.662 169.609C122.119 169.526 121.534 169.591 120.906 169.805C120.273 170.02 119.769 170.325 119.394 170.719C119.019 171.114 118.785 171.575 118.692 172.101C118.6 172.632 118.656 173.198 118.86 173.799L120.833 179.607L119.043 180.215L117.048 174.34C116.746 173.453 116.684 172.602 116.86 171.785C117.032 170.97 117.42 170.25 118.025 169.626C118.63 169.002 119.409 168.528 120.362 168.204C121.316 167.879 122.222 167.781 123.082 167.907C123.942 168.034 124.69 168.367 125.327 168.908C125.96 169.449 126.427 170.164 126.728 171.05L128.723 176.925L126.934 177.534L124.961 171.726Z" fill="url(#paint10_linear_546_5276)"/>
<path d="M104.731 172.158L109.024 175.774L111.154 175.403L110.416 171.168L112.278 170.843L114.123 181.432L108.354 182.437C107.62 182.564 106.948 182.543 106.337 182.373C105.722 182.209 105.217 181.911 104.822 181.481C104.424 181.056 104.169 180.528 104.059 179.897C103.958 179.314 104.006 178.769 104.204 178.265C104.402 177.76 104.728 177.325 105.183 176.96C105.637 176.594 106.192 176.33 106.847 176.168L102.502 172.546L104.731 172.158ZM111.981 180.147L111.43 176.984L107.691 177.635C107.282 177.707 106.938 177.832 106.66 178.011C106.376 178.192 106.173 178.416 106.05 178.685C105.927 178.954 105.894 179.248 105.95 179.568C106.036 180.062 106.284 180.416 106.695 180.631C107.101 180.851 107.617 180.907 108.242 180.798L111.981 180.147Z" fill="url(#paint11_linear_546_5276)"/>
<path d="M91.6575 183.766L91.5958 182.105L98.5645 181.848L98.4516 178.812L91.7118 179.061L91.6501 177.4L98.3899 177.151L98.2269 172.769L100.116 172.699L100.515 183.439L91.6575 183.766Z" fill="url(#paint12_linear_546_5276)"/>
<path d="M89.3368 183.706L78.619 182.661L78.7796 181.007L83.1978 181.437L84.0754 172.395L85.9568 172.579L85.0792 181.621L89.4974 182.052L89.3368 183.706Z" fill="url(#paint13_linear_546_5276)"/>
<path d="M70.5084 169.781L72.9914 174.816L75.0916 175.332L76.1135 171.156L77.9494 171.607L75.3946 182.045L69.7061 180.649C68.9829 180.471 68.3754 180.182 67.8838 179.781C67.3864 179.384 67.0432 178.908 66.8542 178.356C66.6594 177.806 66.6381 177.221 66.7902 176.599C66.931 176.024 67.1932 175.545 67.5769 175.162C67.9606 174.779 68.4339 174.511 68.997 174.36C69.5601 174.208 70.1741 174.189 70.8392 174.303L68.3109 169.241L70.5084 169.781ZM73.947 180.008L74.7101 176.89L71.0244 175.986C70.621 175.887 70.2556 175.863 69.9283 175.916C69.5963 175.967 69.3202 176.091 69.1 176.288C68.8798 176.485 68.7311 176.741 68.6539 177.056C68.5347 177.543 68.6201 177.968 68.9101 178.329C69.1943 178.694 69.6447 178.952 70.2613 179.103L73.947 180.008Z" fill="url(#paint14_linear_546_5276)"/>
<path d="M66.155 168.363L62.5146 178.472L60.7363 177.831L64.3767 167.721L66.155 168.363Z" fill="url(#paint15_linear_546_5276)"/>
<path d="M51.676 173.936C50.9647 173.598 50.4033 173.172 49.9917 172.658C49.5802 172.145 49.3406 171.587 49.2731 170.983C49.1993 170.382 49.3048 169.782 49.5897 169.183C49.8745 168.583 50.2742 168.12 50.7887 167.794C51.2968 167.47 51.8796 167.306 52.5371 167.301C53.1946 167.297 53.879 167.464 54.5902 167.803L58.0173 169.434L59.7142 165.863L61.4213 166.676L56.8102 176.381L51.676 173.936ZM53.954 169.309C53.5704 169.126 53.2077 169.033 52.866 169.029C52.52 169.023 52.2152 169.102 51.9516 169.268C51.686 169.437 51.4763 169.684 51.3226 170.008C51.1689 170.331 51.1111 170.647 51.1493 170.956C51.1854 171.27 51.315 171.559 51.538 171.824C51.7567 172.087 52.0579 172.309 52.4416 172.492L55.804 174.093L57.3164 170.91L53.954 169.309Z" fill="url(#paint16_linear_546_5276)"/>
<path d="M44.44 161.461C44.7079 161.645 44.909 161.875 45.0433 162.152C45.1777 162.429 45.2325 162.722 45.2076 163.029C45.1827 163.336 45.0787 163.623 44.8954 163.891C44.7121 164.159 44.482 164.36 44.205 164.495C43.928 164.629 43.6361 164.684 43.3293 164.659C43.0224 164.634 42.735 164.53 42.4672 164.346C42.1993 164.163 41.9981 163.932 41.8638 163.655C41.7294 163.378 41.6747 163.086 41.6995 162.779C41.7244 162.472 41.8284 162.184 42.0117 161.916C42.195 161.648 42.4251 161.447 42.7021 161.312C42.9791 161.178 43.271 161.123 43.5779 161.148C43.8847 161.173 44.1721 161.278 44.44 161.461Z" fill="url(#paint17_linear_546_5276)"/>
<path d="M36.3098 155.079C36.5648 154.729 36.6955 154.332 36.7019 153.889C36.7082 153.446 36.5927 152.99 36.3553 152.519C36.1145 152.045 35.7609 151.585 35.2945 151.14C34.8351 150.701 34.3883 150.367 33.954 150.138C33.5165 149.911 33.1189 149.802 32.7613 149.811C32.4002 149.816 32.1027 149.941 31.8688 150.187C31.6712 150.394 31.5616 150.613 31.54 150.843C31.5151 151.07 31.5821 151.335 31.7413 151.639C31.8937 151.943 32.1524 152.318 32.5176 152.766L33.9889 154.586C34.542 155.273 34.9315 155.892 35.1573 156.444C35.3797 156.993 35.4474 157.5 35.3606 157.965C35.2704 158.433 35.0228 158.88 34.6176 159.305C34.1697 159.775 33.636 160.047 33.0166 160.123C32.3939 160.202 31.7294 160.085 31.0232 159.774C30.3102 159.463 29.603 158.973 28.9018 158.304C28.2109 157.644 27.6931 156.952 27.3484 156.227C27.0002 155.499 26.8467 154.794 26.888 154.114C26.9259 153.438 27.1615 152.841 27.5949 152.324L28.9836 153.65C28.7579 153.956 28.6463 154.305 28.6489 154.696C28.6515 155.088 28.7693 155.501 29.0025 155.935C29.2288 156.369 29.5614 156.795 30.0001 157.214C30.4216 157.616 30.8356 157.922 31.2424 158.132C31.6457 158.339 32.0177 158.437 32.3584 158.425C32.6957 158.411 32.9763 158.286 33.2003 158.051C33.3814 157.861 33.4829 157.657 33.5048 157.441C33.5233 157.227 33.4633 156.975 33.3248 156.685C33.1794 156.394 32.9432 156.043 32.6161 155.632L31.1438 153.771C30.5278 152.999 30.1003 152.34 29.8611 151.795C29.6152 151.25 29.5344 150.76 29.6186 150.326C29.7028 149.891 29.9507 149.458 30.3625 149.026C30.8335 148.532 31.4005 148.241 32.0636 148.155C32.7233 148.072 33.4267 148.192 34.1737 148.516C34.9208 148.84 35.657 149.348 36.3825 150.04C37.1217 150.746 37.6744 151.484 38.0405 152.256C38.3998 153.028 38.5526 153.775 38.4989 154.496C38.4416 155.213 38.1749 155.85 37.6985 156.405L36.3098 155.079Z" fill="url(#paint18_linear_546_5276)"/>
<path d="M26.1391 146.197C26.6438 145.812 27.0057 145.373 27.225 144.881C27.4404 144.392 27.5025 143.879 27.4111 143.342C27.3168 142.801 27.0684 142.267 26.6659 141.739C26.2605 141.207 25.811 140.826 25.3174 140.596C24.8238 140.366 24.3129 140.29 23.7847 140.369C23.2527 140.451 22.7343 140.684 22.2297 141.069L17.3578 144.789L16.211 143.285L21.1398 139.522C21.8835 138.954 22.6703 138.624 23.5 138.531C24.3269 138.435 25.1324 138.574 25.9165 138.949C26.7005 139.324 27.3981 139.912 28.0091 140.713C28.6201 141.515 29.0027 142.343 29.1569 143.199C29.3111 144.055 29.234 144.871 28.9254 145.647C28.614 146.42 28.0865 147.09 27.3428 147.657L22.4139 151.42L21.2672 149.916L26.1391 146.197Z" fill="url(#paint19_linear_546_5276)"/>
<path d="M19.4811 127.394L17.3945 132.605L18.4141 134.513L22.2023 132.487L23.0937 134.156L13.6231 139.22L10.8613 134.051C10.5102 133.394 10.3196 132.748 10.2894 132.115C10.2527 131.479 10.3769 130.906 10.6619 130.396C10.9404 129.884 11.3617 129.477 11.9257 129.176C12.4477 128.897 12.9792 128.772 13.5203 128.802C14.0613 128.832 14.5765 129.007 15.0656 129.325C15.5548 129.643 15.9791 130.087 16.3386 130.659L18.4142 125.397L19.4811 127.394ZM14.1713 136.782L16.9998 135.27L15.2104 131.92C15.0146 131.554 14.7879 131.266 14.5302 131.057C14.2702 130.844 13.9935 130.721 13.7001 130.689C13.4066 130.656 13.1168 130.716 12.8306 130.869C12.3886 131.106 12.1301 131.452 12.0551 131.91C11.9736 132.365 12.0825 132.873 12.3819 133.433L14.1713 136.782Z" fill="url(#paint20_linear_546_5276)"/>
<path d="M4.43209 118.525L5.99428 117.961L8.36427 124.525L11.2193 123.493L8.92718 117.145L10.4894 116.581L12.7815 122.929L16.9024 121.44L17.5448 123.219L7.44446 126.869L4.43209 118.525Z" fill="url(#paint21_linear_546_5276)"/>
<path d="M3.67094 115.944L1.47766 105.394L3.1039 105.056L4.00805 109.405L12.8963 107.558L13.2813 109.41L4.39304 111.257L5.29718 115.606L3.67094 115.944Z" fill="url(#paint22_linear_546_5276)"/>
<path d="M11.386 93.885L7.2996 97.7305L7.42101 99.8909L11.7101 99.6509L11.8162 101.539L1.09355 102.139L0.764692 96.2876C0.722882 95.5437 0.821715 94.8779 1.06119 94.2904C1.29564 93.6984 1.64945 93.2313 2.12262 92.8891C2.59076 92.5424 3.14412 92.3511 3.78271 92.3154C4.37365 92.2824 4.90816 92.3936 5.38624 92.6491C5.86432 92.9046 6.25828 93.2797 6.56813 93.7742C6.87798 94.2688 7.07563 94.851 7.16107 95.5208L11.259 91.6245L11.386 93.885ZM2.61726 100.16L5.81976 99.9805L5.60669 96.189C5.58337 95.7741 5.4988 95.4176 5.35297 95.1196C5.20688 94.8168 5.00762 94.5887 4.75519 94.4354C4.50276 94.2821 4.21452 94.2145 3.89046 94.2326C3.39007 94.2606 3.0096 94.4661 2.74907 94.849C2.4835 95.2275 2.36854 95.7339 2.40418 96.3682L2.61726 100.16Z" fill="url(#paint23_linear_546_5276)"/>
<path d="M11.4781 89.0177L0.755411 88.4117L0.861354 86.5232L11.5841 87.1291L11.4781 89.0177Z" fill="url(#paint24_linear_546_5276)"/>
<path d="M2.02567 76.6963C2.15046 75.9181 2.40114 75.2594 2.7777 74.7201C3.15425 74.1809 3.62236 73.7942 4.18202 73.5601C4.73773 73.3206 5.34313 73.2536 5.99821 73.359C6.6533 73.4644 7.20962 73.7184 7.66718 74.121C8.12078 74.5181 8.44207 75.0319 8.63106 75.6621C8.82004 76.2924 8.85214 76.9966 8.72734 77.7748L8.12605 81.524L12.0283 82.152L11.7288 84.0195L1.12487 82.313L2.02567 76.6963ZM7.1042 77.5861C7.17151 77.1664 7.15906 76.7919 7.06684 76.4626C6.97537 76.1286 6.81327 75.8582 6.58053 75.6514C6.34309 75.4439 6.04763 75.3117 5.69417 75.2548C5.3407 75.1979 5.02113 75.2311 4.73545 75.3545C4.44506 75.4771 4.20421 75.6826 4.01291 75.9711C3.82236 76.2549 3.69343 76.6067 3.62612 77.0264L3.03617 80.7049L6.51426 81.2646L7.1042 77.5861Z" fill="url(#paint25_linear_546_5276)"/>
<path d="M11.8956 66.464C11.7946 66.7726 11.6299 67.0302 11.4016 67.2367C11.1732 67.4433 10.9083 67.5775 10.6067 67.6394C10.3052 67.7013 10.0002 67.6817 9.6917 67.5805C9.38324 67.4793 9.12578 67.3144 8.9193 67.0858C8.71281 66.8573 8.57859 66.5921 8.51663 66.2903C8.45467 65.9885 8.4742 65.6833 8.57522 65.3746C8.67624 65.066 8.84092 64.8084 9.06927 64.6018C9.29762 64.3953 9.56257 64.261 9.86413 64.1991C10.1657 64.1372 10.4707 64.1569 10.7791 64.2581C11.0876 64.3593 11.3451 64.5242 11.5516 64.7527C11.758 64.9813 11.8923 65.2465 11.9542 65.5483C12.0162 65.8501 11.9966 66.1553 11.8956 66.464Z" fill="url(#paint26_linear_546_5276)"/>
<path d="M15.7175 56.8889C16.1253 57.036 16.5424 57.0507 16.969 56.9331C17.3955 56.8156 17.8014 56.577 18.1866 56.2174C18.574 55.8536 18.916 55.3854 19.2125 54.813C19.5046 54.2491 19.7001 53.7265 19.7989 53.2451C19.8934 52.7616 19.8866 52.3491 19.7784 52.0078C19.6724 51.6623 19.469 51.4115 19.1681 51.2553C18.9138 51.1233 18.6732 51.0792 18.4463 51.1228C18.2216 51.1622 17.9858 51.3007 17.739 51.5385C17.4901 51.7698 17.2021 52.1234 16.875 52.5992L15.5405 54.5213C15.0369 55.2444 14.5518 55.7916 14.0853 56.1628C13.621 56.5298 13.1536 56.7365 12.6833 56.7829C12.2087 56.8271 11.7108 56.714 11.1896 56.4434C10.6132 56.1443 10.2022 55.7077 9.95647 55.1337C9.70652 54.5574 9.63193 53.8865 9.7327 53.1211C9.83143 52.3492 10.1037 51.5328 10.5496 50.6721C10.9889 49.8241 11.5081 49.1332 12.1072 48.5995C12.7085 48.0615 13.3411 47.7173 14.0051 47.567C14.6649 47.4144 15.3034 47.4741 15.9207 47.7461L15.0377 49.4506C14.681 49.3193 14.315 49.3095 13.9398 49.4215C13.5645 49.5334 13.2015 49.7619 12.8506 50.1071C12.4977 50.4458 12.1818 50.8844 11.9029 51.4229C11.6349 51.9402 11.4571 52.4235 11.3695 52.873C11.284 53.3182 11.2944 53.7029 11.4007 54.0271C11.5093 54.3471 11.7076 54.5818 11.9958 54.7314C12.2288 54.8523 12.4524 54.893 12.6665 54.8535C12.8763 54.8117 13.1012 54.6837 13.3413 54.4694C13.5794 54.2486 13.8499 53.9236 14.1528 53.4944L15.5259 51.5601C16.0948 50.7524 16.6073 50.1576 17.0633 49.7755C17.5172 49.3871 17.9644 49.1726 18.4047 49.1321C18.8451 49.0917 19.3302 49.2089 19.8599 49.4839C20.4659 49.7984 20.9032 50.2621 21.1718 50.8749C21.4362 51.4856 21.5177 52.195 21.4163 53.0032C21.3149 53.8114 21.0336 54.6607 20.5724 55.5511C20.1024 56.4585 19.5483 57.1958 18.9103 57.7632C18.2703 58.324 17.5969 58.6794 16.8902 58.8291C16.1857 58.9746 15.5005 58.896 14.8346 58.5934L15.7175 56.8889Z" fill="url(#paint27_linear_546_5276)"/>
<path d="M21.5113 44.4066C22.0226 44.7833 22.5449 45.008 23.0783 45.0807C23.6078 45.1506 24.1173 45.0663 24.6068 44.828C25.0991 44.5858 25.5419 44.1974 25.9351 43.6627C26.3312 43.1243 26.5702 42.5857 26.6522 42.0472C26.7342 41.5086 26.6632 40.9966 26.4392 40.5114C26.2113 40.0233 25.8418 39.5909 25.3305 39.2142L20.3942 35.5774L21.5145 34.0543L26.5084 37.7335C27.2619 38.2887 27.7997 38.9518 28.1218 39.7228C28.4466 40.49 28.5395 41.3026 28.4003 42.1608C28.261 43.019 27.893 43.8538 27.296 44.6654C26.6991 45.4769 26.0119 46.0767 25.2346 46.4647C24.4572 46.8527 23.6528 47.0074 22.8216 46.9287C21.9931 46.8462 21.2021 46.5273 20.4486 45.9722L15.4547 42.2929L16.575 40.7698L21.5113 44.4066Z" fill="url(#paint28_linear_546_5276)"/>
<path d="M37.4632 32.8297L31.8747 32.333L30.3435 33.8602L33.3765 36.9056L32.0379 38.2407L24.4554 30.6272L28.6029 26.4906C29.1302 25.9647 29.6927 25.5959 30.2904 25.3842C30.8882 25.1657 31.4721 25.1195 32.0423 25.2455C32.6126 25.3648 33.1235 25.6512 33.575 26.1046C33.9929 26.5242 34.2656 26.9975 34.3931 27.5247C34.5205 28.0518 34.5028 28.5956 34.34 29.1559C34.1771 29.7163 33.8742 30.2511 33.4313 30.7603L39.0654 31.2317L37.4632 32.8297ZM26.9465 30.4494L29.2111 32.7233L31.8984 30.0431C32.1925 29.7498 32.4022 29.4496 32.5276 29.1424C32.6563 28.832 32.6939 28.5314 32.6403 28.2409C32.5867 27.9503 32.4454 27.6899 32.2162 27.4599C31.8623 27.1046 31.4559 26.9569 30.9968 27.0168C30.5377 27.07 30.0833 27.3208 29.6338 27.7692L26.9465 30.4494Z" fill="url(#paint29_linear_546_5276)"/>
<path d="M41.5837 15.7533L42.5821 17.0821L37.0088 21.2749L38.8335 23.7034L44.2237 19.6484L45.2221 20.9772L39.8319 25.0322L42.4656 28.5374L40.955 29.6739L34.4998 21.0825L41.5837 15.7533Z" fill="url(#paint30_linear_546_5276)"/>
<path d="M43.4576 14.4693L52.8474 9.19726L53.6605 10.647L49.7897 12.8203L54.234 20.7438L52.5858 21.6692L48.1415 13.7457L44.2708 15.919L43.4576 14.4693Z" fill="url(#paint31_linear_546_5276)"/>
<path d="M66.8353 15.0856L61.9198 12.3776L59.9032 13.1577L61.4533 17.1675L59.6904 17.8494L55.8154 7.82483L61.2775 5.71194C61.972 5.44331 62.6354 5.33265 63.2677 5.37997C63.9028 5.42111 64.456 5.61431 64.9272 5.95956C65.4011 6.29864 65.7534 6.76668 65.9842 7.36371C66.1978 7.91617 66.2568 8.45929 66.1612 8.99306C66.0656 9.52683 65.8304 10.0173 65.4557 10.4644C65.081 10.9115 64.5884 11.2788 63.978 11.5661L68.9453 14.2694L66.8353 15.0856ZM58.1672 8.66666L59.3246 11.6607L62.8636 10.2917C63.2509 10.1419 63.5637 9.95172 63.8021 9.72122C64.045 9.48899 64.2004 9.22913 64.2684 8.94164C64.3364 8.65414 64.3118 8.35892 64.1947 8.05595C64.0138 7.58813 63.7012 7.28909 63.2568 7.15881C62.8152 7.02236 62.2983 7.06865 61.7063 7.29767L58.1672 8.66666Z" fill="url(#paint32_linear_546_5276)"/>
<path d="M71.2301 13.7137L68.3946 3.34684L70.2177 2.84804L73.0532 13.2149L71.2301 13.7137Z" fill="url(#paint33_linear_546_5276)"/>
<path d="M79.9458 0.772977C80.7222 0.640772 81.4262 0.666259 82.0577 0.849439C82.6893 1.03262 83.2061 1.35165 83.608 1.80653C84.0138 2.25589 84.2724 2.80785 84.3839 3.46238C84.4954 4.11692 84.4345 4.72571 84.2012 5.28876C83.9718 5.84629 83.5894 6.316 83.0541 6.69789C82.5188 7.07978 81.863 7.33683 81.0866 7.46903L77.3459 8.10603L78.0102 12.005L76.1469 12.3223L74.3419 1.72726L79.9458 0.772977ZM80.7417 5.87061C81.1604 5.7993 81.5107 5.66697 81.7925 5.47362C82.079 5.27947 82.2825 5.03888 82.403 4.75185C82.5228 4.46011 82.5526 4.13765 82.4924 3.78448C82.4322 3.43132 82.2978 3.13926 82.089 2.90831C81.8793 2.67266 81.6072 2.51064 81.2726 2.42225C80.9427 2.33307 80.5684 2.32413 80.1496 2.39544L76.4795 3.02041L77.0716 6.49558L80.7417 5.87061Z" fill="url(#paint34_linear_546_5276)"/>
<path d="M93.398 6.73329C93.0735 6.73797 92.7765 6.66582 92.5069 6.51684C92.2374 6.36786 92.0243 6.16074 91.8677 5.89548C91.711 5.63023 91.6303 5.33521 91.6255 5.01044C91.6207 4.68566 91.6927 4.38845 91.8415 4.11878C91.9903 3.84912 92.1972 3.63594 92.4622 3.47925C92.7272 3.32256 93.022 3.24187 93.3465 3.23719C93.6711 3.23251 93.9681 3.30466 94.2376 3.45364C94.5071 3.60262 94.7202 3.80974 94.8769 4.075C95.0335 4.34025 95.1143 4.63527 95.1191 4.96004C95.1238 5.28482 95.0518 5.58204 94.9031 5.8517C94.7543 6.12136 94.5474 6.33454 94.2824 6.49123C94.0174 6.64792 93.7226 6.72861 93.398 6.73329Z" fill="url(#paint35_linear_546_5276)"/>
<path d="M103.342 7.1881C103.339 7.62178 103.463 8.02062 103.715 8.38461C103.967 8.7486 104.326 9.05309 104.793 9.2981C105.264 9.54378 105.819 9.71208 106.457 9.80299C107.085 9.89256 107.643 9.90447 108.13 9.83873C108.617 9.76827 109.004 9.62556 109.29 9.41062C109.58 9.19636 109.75 8.92135 109.797 8.5856C109.838 8.30187 109.8 8.06006 109.683 7.86016C109.572 7.66093 109.363 7.48404 109.057 7.32948C108.757 7.17086 108.328 7.01569 107.771 6.86394L105.516 6.23873C104.668 6.002 103.991 5.72466 103.487 5.40672C102.987 5.08945 102.637 4.71638 102.438 4.28752C102.239 3.85393 102.181 3.3463 102.263 2.76465C102.355 2.12153 102.63 1.5891 103.091 1.16738C103.551 0.740933 104.159 0.448847 104.914 0.291121C105.675 0.12934 106.535 0.116802 107.494 0.25351C108.44 0.388198 109.263 0.650274 109.965 1.03974C110.671 1.42987 111.205 1.91364 111.566 2.49104C111.929 3.06372 112.084 3.68647 112.032 4.35931L110.132 4.08858C110.138 3.70827 110.026 3.35941 109.796 3.04202C109.566 2.72463 109.231 2.45728 108.789 2.23996C108.353 2.01858 107.834 1.86513 107.234 1.7796C106.658 1.69744 106.143 1.68923 105.69 1.75495C105.242 1.82135 104.883 1.9583 104.612 2.1658C104.346 2.37397 104.191 2.63884 104.145 2.9604C104.108 3.22049 104.144 3.44508 104.252 3.63418C104.361 3.81854 104.556 3.98869 104.837 4.14461C105.124 4.29647 105.52 4.44457 106.025 4.58891L108.304 5.24653C109.254 5.517 109.985 5.80444 110.496 6.10888C111.013 6.40925 111.363 6.7607 111.547 7.16323C111.731 7.56575 111.781 8.06257 111.697 8.65367C111.601 9.3299 111.308 9.89611 110.819 10.3523C110.331 10.8037 109.689 11.1151 108.893 11.2864C108.097 11.4576 107.203 11.4725 106.211 11.3311C105.2 11.187 104.321 10.9074 103.575 10.4923C102.834 10.0731 102.276 9.55455 101.901 8.93662C101.53 8.31936 101.378 7.64628 101.442 6.91738L103.342 7.1881Z" fill="url(#paint36_linear_546_5276)"/>
<path d="M116.89 8.47465C116.706 9.08245 116.668 9.65009 116.777 10.1776C116.888 10.7005 117.137 11.1532 117.525 11.5358C117.917 11.9197 118.431 12.2083 119.066 12.4015C119.705 12.5961 120.292 12.6425 120.827 12.5406C121.362 12.4388 121.821 12.2015 122.203 11.8287C122.587 11.4513 122.871 10.9587 123.056 10.3509L124.837 4.48316L126.646 5.03354L124.844 10.9699C124.572 11.8656 124.126 12.5936 123.507 13.154C122.892 13.7158 122.158 14.0738 121.303 14.2279C120.448 14.3821 119.538 14.3125 118.575 14.0193C117.611 13.726 116.817 13.2772 116.192 12.6727C115.567 12.0682 115.154 11.3607 114.951 10.5502C114.752 9.74097 114.789 8.88853 115.061 7.99283L116.863 2.05651L118.672 2.60689L116.89 8.47465Z" fill="url(#paint37_linear_546_5276)"/>
<path d="M133.626 19.9082L132.251 14.4646L130.305 13.5208L128.432 17.3892L126.731 16.5641L131.413 6.89313L136.684 9.44962C137.354 9.77465 137.887 10.1847 138.284 10.6797C138.687 11.1725 138.924 11.709 138.993 12.2892C139.069 12.8673 138.967 13.4442 138.688 14.0202C138.43 14.5532 138.074 14.9667 137.618 15.2607C137.163 15.5547 136.644 15.717 136.062 15.7477C135.479 15.7783 134.875 15.6682 134.248 15.4175L135.662 20.8958L133.626 19.9082ZM132.402 9.1882L131.004 12.0766L134.419 13.733C134.793 13.9143 135.145 14.0135 135.477 14.0308C135.812 14.0502 136.108 13.9868 136.364 13.8405C136.621 13.6942 136.82 13.4749 136.961 13.1826C137.18 12.7313 137.185 12.2986 136.977 11.8846C136.775 11.4684 136.389 11.1217 135.817 10.8446L132.402 9.1882Z" fill="url(#paint38_linear_546_5276)"/>
<path d="M150.856 18.0368L149.933 19.4186L144.135 15.5395L142.448 18.0648L148.056 21.8165L147.133 23.1983L141.525 19.4466L139.091 23.0917L137.519 22.0403L143.486 13.1063L150.856 18.0368Z" fill="url(#paint39_linear_546_5276)"/>
<path d="M152.71 19.4056L160.772 26.5513L159.671 27.7955L156.348 24.8498L150.33 31.6502L148.915 30.3959L154.932 23.5955L151.609 20.6498L152.71 19.4056Z" fill="url(#paint40_linear_546_5276)"/>
<path d="M159.868 41.8542L160.845 36.3259L159.456 34.6666L156.163 37.4257L154.949 35.9751L163.183 29.0774L166.943 33.5719C167.421 34.1433 167.74 34.7362 167.899 35.3505C168.065 35.9654 168.061 36.5516 167.886 37.1091C167.718 37.6672 167.389 38.1517 166.899 38.5625C166.445 38.9426 165.95 39.1733 165.414 39.2546C164.879 39.3358 164.339 39.2709 163.795 39.0598C163.251 38.8488 162.745 38.5003 162.276 38.0145L161.321 43.5905L159.868 41.8542ZM163.145 31.5764L160.686 33.6365L163.122 36.5486C163.389 36.8673 163.67 37.1024 163.965 37.2541C164.263 37.4094 164.559 37.473 164.853 37.4449C165.146 37.4167 165.418 37.2984 165.667 37.0899C166.051 36.768 166.233 36.3756 166.213 35.9127C166.2 35.4504 165.989 34.9756 165.581 34.4885L163.145 31.5764Z" fill="url(#paint41_linear_546_5276)"/>
<path d="M162.64 45.7106L171.58 39.759L172.627 41.334L163.687 47.2856L162.64 45.7106Z" fill="url(#paint42_linear_546_5276)"/>
<path d="M177.625 49.9728C177.991 50.6708 178.185 51.3486 178.207 52.0063C178.228 52.6639 178.085 53.2543 177.777 53.7773C177.476 54.3023 177.031 54.719 176.444 55.0273C175.856 55.3357 175.259 55.4658 174.652 55.4177C174.051 55.3717 173.486 55.1529 172.957 54.7615C172.429 54.37 171.981 53.8253 171.615 53.1273L169.852 49.7643L166.352 51.6011L165.474 49.9259L174.984 44.9347L177.625 49.9728ZM173.028 52.3052C173.225 52.6817 173.459 52.9741 173.73 53.1826C174.003 53.3952 174.295 53.5145 174.605 53.5406C174.919 53.5644 175.235 53.4931 175.552 53.3268C175.869 53.1604 176.105 52.9422 176.26 52.6721C176.419 52.3998 176.488 52.0908 176.469 51.7451C176.451 51.4036 176.344 51.0446 176.147 50.6681L174.416 47.3685L171.297 49.0056L173.028 52.3052Z" fill="url(#paint43_linear_546_5276)"/>
<path d="M175.904 64.2771C175.801 63.969 175.779 63.6639 175.839 63.3618C175.899 63.0596 176.031 62.7936 176.236 62.5638C176.441 62.334 176.698 62.1675 177.005 62.0645C177.313 61.9614 177.618 61.9399 177.92 62C178.222 62.0601 178.488 62.1927 178.718 62.3979C178.947 62.6031 179.114 62.8597 179.217 63.1677C179.32 63.4757 179.342 63.7808 179.282 64.083C179.222 64.3851 179.089 64.6511 178.884 64.881C178.679 65.1108 178.423 65.2772 178.115 65.3803C177.807 65.4833 177.503 65.5048 177.201 65.4447C176.899 65.3847 176.633 65.252 176.403 65.0469C176.173 64.8417 176.007 64.5851 175.904 64.2771Z" fill="url(#paint44_linear_546_5276)"/>
<defs>
<linearGradient id="paint0_linear_546_5276" x1="191.325" y1="157.118" x2="3.22693" y2="114.383" gradientUnits="userSpaceOnUse">
<stop stop-color="#001E89"/>
<stop offset="1" stop-color="#EEF2FF"/>
</linearGradient>
<linearGradient id="paint1_linear_546_5276" x1="191.325" y1="157.118" x2="3.22693" y2="114.383" gradientUnits="userSpaceOnUse">
<stop stop-color="#001E89"/>
<stop offset="1" stop-color="#EEF2FF"/>
</linearGradient>
<linearGradient id="paint2_linear_546_5276" x1="191.325" y1="157.118" x2="3.22693" y2="114.383" gradientUnits="userSpaceOnUse">
<stop stop-color="#001E89"/>
<stop offset="1" stop-color="#EEF2FF"/>
</linearGradient>
<linearGradient id="paint3_linear_546_5276" x1="191.325" y1="157.118" x2="3.22693" y2="114.383" gradientUnits="userSpaceOnUse">
<stop stop-color="#001E89"/>
<stop offset="1" stop-color="#EEF2FF"/>
</linearGradient>
<linearGradient id="paint4_linear_546_5276" x1="191.325" y1="157.118" x2="3.22693" y2="114.383" gradientUnits="userSpaceOnUse">
<stop stop-color="#001E89"/>
<stop offset="1" stop-color="#EEF2FF"/>
</linearGradient>
<linearGradient id="paint5_linear_546_5276" x1="191.325" y1="157.118" x2="3.22693" y2="114.383" gradientUnits="userSpaceOnUse">
<stop stop-color="#001E89"/>
<stop offset="1" stop-color="#EEF2FF"/>
</linearGradient>
<linearGradient id="paint6_linear_546_5276" x1="191.325" y1="157.118" x2="3.22693" y2="114.383" gradientUnits="userSpaceOnUse">
<stop stop-color="#001E89"/>
<stop offset="1" stop-color="#EEF2FF"/>
</linearGradient>
<linearGradient id="paint7_linear_546_5276" x1="191.325" y1="157.118" x2="3.22693" y2="114.383" gradientUnits="userSpaceOnUse">
<stop stop-color="#001E89"/>
<stop offset="1" stop-color="#EEF2FF"/>
</linearGradient>
<linearGradient id="paint8_linear_546_5276" x1="191.325" y1="157.118" x2="3.22693" y2="114.383" gradientUnits="userSpaceOnUse">
<stop stop-color="#001E89"/>
<stop offset="1" stop-color="#EEF2FF"/>
</linearGradient>
<linearGradient id="paint9_linear_546_5276" x1="191.325" y1="157.118" x2="3.22693" y2="114.383" gradientUnits="userSpaceOnUse">
<stop stop-color="#001E89"/>
<stop offset="1" stop-color="#EEF2FF"/>
</linearGradient>
<linearGradient id="paint10_linear_546_5276" x1="191.325" y1="157.118" x2="3.22693" y2="114.383" gradientUnits="userSpaceOnUse">
<stop stop-color="#001E89"/>
<stop offset="1" stop-color="#EEF2FF"/>
</linearGradient>
<linearGradient id="paint11_linear_546_5276" x1="191.325" y1="157.118" x2="3.22693" y2="114.383" gradientUnits="userSpaceOnUse">
<stop stop-color="#001E89"/>
<stop offset="1" stop-color="#EEF2FF"/>
</linearGradient>
<linearGradient id="paint12_linear_546_5276" x1="191.325" y1="157.118" x2="3.22693" y2="114.383" gradientUnits="userSpaceOnUse">
<stop stop-color="#001E89"/>
<stop offset="1" stop-color="#EEF2FF"/>
</linearGradient>
<linearGradient id="paint13_linear_546_5276" x1="191.325" y1="157.118" x2="3.22693" y2="114.383" gradientUnits="userSpaceOnUse">
<stop stop-color="#001E89"/>
<stop offset="1" stop-color="#EEF2FF"/>
</linearGradient>
<linearGradient id="paint14_linear_546_5276" x1="191.325" y1="157.118" x2="3.22693" y2="114.383" gradientUnits="userSpaceOnUse">
<stop stop-color="#001E89"/>
<stop offset="1" stop-color="#EEF2FF"/>
</linearGradient>
<linearGradient id="paint15_linear_546_5276" x1="191.325" y1="157.118" x2="3.22693" y2="114.383" gradientUnits="userSpaceOnUse">
<stop stop-color="#001E89"/>
<stop offset="1" stop-color="#EEF2FF"/>
</linearGradient>
<linearGradient id="paint16_linear_546_5276" x1="191.325" y1="157.118" x2="3.22693" y2="114.383" gradientUnits="userSpaceOnUse">
<stop stop-color="#001E89"/>
<stop offset="1" stop-color="#EEF2FF"/>
</linearGradient>
<linearGradient id="paint17_linear_546_5276" x1="191.325" y1="157.118" x2="3.22693" y2="114.383" gradientUnits="userSpaceOnUse">
<stop stop-color="#001E89"/>
<stop offset="1" stop-color="#EEF2FF"/>
</linearGradient>
<linearGradient id="paint18_linear_546_5276" x1="191.325" y1="157.118" x2="3.22693" y2="114.383" gradientUnits="userSpaceOnUse">
<stop stop-color="#001E89"/>
<stop offset="1" stop-color="#EEF2FF"/>
</linearGradient>
<linearGradient id="paint19_linear_546_5276" x1="191.325" y1="157.118" x2="3.22693" y2="114.383" gradientUnits="userSpaceOnUse">
<stop stop-color="#001E89"/>
<stop offset="1" stop-color="#EEF2FF"/>
</linearGradient>
<linearGradient id="paint20_linear_546_5276" x1="191.325" y1="157.118" x2="3.22693" y2="114.383" gradientUnits="userSpaceOnUse">
<stop stop-color="#001E89"/>
<stop offset="1" stop-color="#EEF2FF"/>
</linearGradient>
<linearGradient id="paint21_linear_546_5276" x1="191.325" y1="157.118" x2="3.22693" y2="114.383" gradientUnits="userSpaceOnUse">
<stop stop-color="#001E89"/>
<stop offset="1" stop-color="#EEF2FF"/>
</linearGradient>
<linearGradient id="paint22_linear_546_5276" x1="191.325" y1="157.118" x2="3.22693" y2="114.383" gradientUnits="userSpaceOnUse">
<stop stop-color="#001E89"/>
<stop offset="1" stop-color="#EEF2FF"/>
</linearGradient>
<linearGradient id="paint23_linear_546_5276" x1="191.325" y1="157.118" x2="3.22693" y2="114.383" gradientUnits="userSpaceOnUse">
<stop stop-color="#001E89"/>
<stop offset="1" stop-color="#EEF2FF"/>
</linearGradient>
<linearGradient id="paint24_linear_546_5276" x1="191.325" y1="157.118" x2="3.22693" y2="114.383" gradientUnits="userSpaceOnUse">
<stop stop-color="#001E89"/>
<stop offset="1" stop-color="#EEF2FF"/>
</linearGradient>
<linearGradient id="paint25_linear_546_5276" x1="191.325" y1="157.118" x2="3.22693" y2="114.383" gradientUnits="userSpaceOnUse">
<stop stop-color="#001E89"/>
<stop offset="1" stop-color="#EEF2FF"/>
</linearGradient>
<linearGradient id="paint26_linear_546_5276" x1="191.325" y1="157.118" x2="3.22693" y2="114.383" gradientUnits="userSpaceOnUse">
<stop stop-color="#001E89"/>
<stop offset="1" stop-color="#EEF2FF"/>
</linearGradient>
<linearGradient id="paint27_linear_546_5276" x1="191.325" y1="157.118" x2="3.22693" y2="114.383" gradientUnits="userSpaceOnUse">
<stop stop-color="#001E89"/>
<stop offset="1" stop-color="#EEF2FF"/>
</linearGradient>
<linearGradient id="paint28_linear_546_5276" x1="191.325" y1="157.118" x2="3.22693" y2="114.383" gradientUnits="userSpaceOnUse">
<stop stop-color="#001E89"/>
<stop offset="1" stop-color="#EEF2FF"/>
</linearGradient>
<linearGradient id="paint29_linear_546_5276" x1="191.325" y1="157.118" x2="3.22693" y2="114.383" gradientUnits="userSpaceOnUse">
<stop stop-color="#001E89"/>
<stop offset="1" stop-color="#EEF2FF"/>
</linearGradient>
<linearGradient id="paint30_linear_546_5276" x1="191.325" y1="157.118" x2="3.22693" y2="114.383" gradientUnits="userSpaceOnUse">
<stop stop-color="#001E89"/>
<stop offset="1" stop-color="#EEF2FF"/>
</linearGradient>
<linearGradient id="paint31_linear_546_5276" x1="191.325" y1="157.118" x2="3.22693" y2="114.383" gradientUnits="userSpaceOnUse">
<stop stop-color="#001E89"/>
<stop offset="1" stop-color="#EEF2FF"/>
</linearGradient>
<linearGradient id="paint32_linear_546_5276" x1="191.325" y1="157.118" x2="3.22693" y2="114.383" gradientUnits="userSpaceOnUse">
<stop stop-color="#001E89"/>
<stop offset="1" stop-color="#EEF2FF"/>
</linearGradient>
<linearGradient id="paint33_linear_546_5276" x1="191.325" y1="157.118" x2="3.22693" y2="114.383" gradientUnits="userSpaceOnUse">
<stop stop-color="#001E89"/>
<stop offset="1" stop-color="#EEF2FF"/>
</linearGradient>
<linearGradient id="paint34_linear_546_5276" x1="191.325" y1="157.118" x2="3.22693" y2="114.383" gradientUnits="userSpaceOnUse">
<stop stop-color="#001E89"/>
<stop offset="1" stop-color="#EEF2FF"/>
</linearGradient>
<linearGradient id="paint35_linear_546_5276" x1="191.325" y1="157.118" x2="3.22693" y2="114.383" gradientUnits="userSpaceOnUse">
<stop stop-color="#001E89"/>
<stop offset="1" stop-color="#EEF2FF"/>
</linearGradient>
<linearGradient id="paint36_linear_546_5276" x1="191.325" y1="157.118" x2="3.22693" y2="114.383" gradientUnits="userSpaceOnUse">
<stop stop-color="#001E89"/>
<stop offset="1" stop-color="#EEF2FF"/>
</linearGradient>
<linearGradient id="paint37_linear_546_5276" x1="191.325" y1="157.118" x2="3.22693" y2="114.383" gradientUnits="userSpaceOnUse">
<stop stop-color="#001E89"/>
<stop offset="1" stop-color="#EEF2FF"/>
</linearGradient>
<linearGradient id="paint38_linear_546_5276" x1="191.325" y1="157.118" x2="3.22693" y2="114.383" gradientUnits="userSpaceOnUse">
<stop stop-color="#001E89"/>
<stop offset="1" stop-color="#EEF2FF"/>
</linearGradient>
<linearGradient id="paint39_linear_546_5276" x1="191.325" y1="157.118" x2="3.22693" y2="114.383" gradientUnits="userSpaceOnUse">
<stop stop-color="#001E89"/>
<stop offset="1" stop-color="#EEF2FF"/>
</linearGradient>
<linearGradient id="paint40_linear_546_5276" x1="191.325" y1="157.118" x2="3.22693" y2="114.383" gradientUnits="userSpaceOnUse">
<stop stop-color="#001E89"/>
<stop offset="1" stop-color="#EEF2FF"/>
</linearGradient>
<linearGradient id="paint41_linear_546_5276" x1="191.325" y1="157.118" x2="3.22693" y2="114.383" gradientUnits="userSpaceOnUse">
<stop stop-color="#001E89"/>
<stop offset="1" stop-color="#EEF2FF"/>
</linearGradient>
<linearGradient id="paint42_linear_546_5276" x1="191.325" y1="157.118" x2="3.22693" y2="114.383" gradientUnits="userSpaceOnUse">
<stop stop-color="#001E89"/>
<stop offset="1" stop-color="#EEF2FF"/>
</linearGradient>
<linearGradient id="paint43_linear_546_5276" x1="191.325" y1="157.118" x2="3.22693" y2="114.383" gradientUnits="userSpaceOnUse">
<stop stop-color="#001E89"/>
<stop offset="1" stop-color="#EEF2FF"/>
</linearGradient>
<linearGradient id="paint44_linear_546_5276" x1="191.325" y1="157.118" x2="3.22693" y2="114.383" gradientUnits="userSpaceOnUse">
<stop stop-color="#001E89"/>
<stop offset="1" stop-color="#EEF2FF"/>
</linearGradient>
</defs>
</svg>
