<svg width="25" height="25" viewBox="0 0 25 25" fill="none" xmlns="http://www.w3.org/2000/svg">
<rect width="25" height="25" rx="7" fill="#0077FF"/>
<path d="M19.6354 8.67812C19.7452 8.2875 19.6353 8 19.1066 8H17.3572C16.9116 8 16.7067 8.24687 16.5968 8.52187C16.5968 8.52187 15.7057 10.8062 14.4463 12.2875C14.0394 12.7156 13.8523 12.8531 13.6295 12.8531C13.5196 12.8531 13.3503 12.7156 13.3503 12.325V8.67812C13.3503 8.20937 13.2256 8 12.8573 8H10.1068C9.82761 8 9.66128 8.21875 9.66128 8.42188C9.66128 8.86563 10.291 8.96875 10.3563 10.2188V12.9313C10.3563 13.525 10.2553 13.6344 10.0326 13.6344C9.43851 13.6344 7.99497 11.3406 7.13954 8.71563C6.96727 8.20625 6.79797 8 6.34946 8H4.59999C4.10099 8 4 8.24687 4 8.52187C4 9.00937 4.59405 11.4313 6.76529 14.6313C8.2118 16.8156 10.2494 18 12.1028 18C13.2167 18 13.3533 17.7375 13.3533 17.2844C13.3533 15.1969 13.2523 15 13.8107 15C14.0691 15 14.5147 15.1375 15.5542 16.1906C16.7423 17.4406 16.9384 18 17.6037 18H19.3532C19.8522 18 20.1046 17.7375 19.9591 17.2187C19.6264 16.1281 17.378 13.8844 17.277 13.7344C17.0186 13.3844 17.0928 13.2281 17.277 12.9156C17.2799 12.9125 19.4156 9.75 19.6354 8.67812Z" fill="white"/>
</svg>
