<svg width="45" height="45" viewBox="0 0 45 45" fill="none" xmlns="http://www.w3.org/2000/svg">
<g clip-path="url(#clip0_456_267)">
<path d="M6.2149 9.08112C5.06355 9.24545 3.9913 9.60871 3.1124 10.119C2.4796 10.4996 0.466926 12.3678 0.203258 12.8175C-0.0692 13.3019 -0.0692 14.0976 0.212047 14.6165C0.528449 15.2046 1.02942 15.5074 1.7589 15.542C2.56749 15.5852 2.88389 15.4122 4.06161 14.2965C4.58016 13.8121 5.16023 13.3278 5.36237 13.2327C5.99518 12.9126 6.83013 12.7656 8.0518 12.757C10.3721 12.757 11.9014 13.2846 15.8476 15.4555C18.871 17.1161 20.0487 17.6696 21.8065 18.2318C24.8563 19.2092 28.3807 19.2524 31.8699 18.3702C34.8142 17.6177 38.1715 16.1474 41.7926 14.0024C44.8424 12.2034 45.0533 11.9872 44.9918 10.8455C44.9478 10.0498 44.6666 9.60871 43.9898 9.28005C43.5943 9.08977 43.4273 9.05517 42.9967 9.08977C42.443 9.12436 42.5221 9.08977 40.1666 10.5255C35.9743 13.0856 31.9665 14.703 28.7674 15.1268C27.7478 15.2652 25.7703 15.2392 24.8826 15.0922C22.7909 14.7289 21.3495 14.1408 17.8866 12.2207C14.1074 10.1363 12.2002 9.38383 9.91505 9.08112C9.11526 8.96868 6.97075 8.97733 6.2149 9.08112Z" fill="white"/>
<path d="M6.45996 19.0889C5.42285 19.2185 4.47363 19.495 3.62988 19.901C2.93555 20.2379 2.66309 20.4453 1.56445 21.456C0.808594 22.1558 0.246094 22.7519 0.158203 22.9506C0.0703125 23.132 0.00878906 23.4776 0 23.7454C0 25.1881 1.43262 26.0434 2.78613 25.4127C2.94434 25.3436 3.55078 24.8425 4.12207 24.3069C4.94824 23.538 5.27344 23.2962 5.66016 23.1493C7.14551 22.605 9.52734 22.6914 11.4434 23.3653C12.4541 23.7195 13.8604 24.402 15.9961 25.5769C19.2656 27.3652 20.54 27.9353 22.4385 28.445C24.1787 28.9116 25.3652 29.0411 27.4482 28.9893C29.3203 28.9461 30.0762 28.8424 31.8164 28.4105C34.3477 27.7798 37.0195 26.6827 40.0342 25.0499C41.6338 24.1773 44.0684 22.6914 44.4111 22.3718C44.8242 22.0003 45 21.5683 45 20.9636C45 20.0306 44.4287 19.3395 43.4971 19.1494C42.8115 19.0112 42.5127 19.1235 40.8252 20.1688C36.4746 22.8642 32.8008 24.4365 29.4434 25.0585C28.0195 25.3263 25.7432 25.3263 24.4688 25.0585C22.5791 24.6611 21.1289 24.0478 18.0791 22.3804C15.0557 20.7131 13.667 20.0738 12.085 19.59C10.3008 19.0544 8.23535 18.8729 6.45996 19.0889Z" fill="white"/>
<path d="M6.45339 27.0843C5.4161 27.2139 4.46672 27.4904 3.62283 27.8966C2.92837 28.2336 2.65587 28.441 1.55705 29.4521C0.801057 30.1521 0.238462 30.7484 0.150556 30.9472C-0.051627 31.3706 -0.051627 32.1224 0.159346 32.5718C0.475807 33.2632 1.40761 33.7385 2.16359 33.6002C2.72619 33.4965 3.12177 33.2372 4.10631 32.3126C4.63374 31.82 5.22271 31.336 5.40731 31.241C6.33032 30.7743 8.37852 30.6533 9.95203 30.9731C11.5959 31.3015 12.7826 31.82 16.123 33.6434C19.3316 35.3977 20.7293 36.0113 22.5929 36.4866C24.351 36.936 25.3795 37.0397 27.4189 36.9878C29.2649 36.9446 30.2494 36.815 31.8581 36.4088C35.1194 35.5792 39.1982 33.7039 43.154 31.2237C44.7627 30.2126 45 29.9188 45 28.9595C45 28.0262 44.4286 27.3349 43.5056 27.1534C42.8199 27.0151 42.5211 27.1188 41.0882 28.0089C36.2798 30.9817 32.702 32.5027 29.0012 33.1335C27.9199 33.3237 25.5289 33.2805 24.4652 33.0558C22.5929 32.6582 21.0985 32.036 18.1009 30.3854C14.4968 28.3978 12.9408 27.7324 10.9366 27.3003C9.53887 26.9978 7.82472 26.9201 6.45339 27.0843Z" fill="white"/>
</g>
<defs>
<clipPath id="clip0_456_267">
<rect width="45" height="45" fill="white"/>
</clipPath>
</defs>
</svg>
