<svg width="45" height="45" viewBox="0 0 45 45" fill="none" xmlns="http://www.w3.org/2000/svg">
<g clip-path="url(#clip0_456_272)">
<path d="M1.1253 0.161975C0.717106 0.364147 0.300582 0.812439 0.133972 1.24315C0.0173456 1.53322 0.000684622 3.79226 0.000684622 22.4975C0.000684622 45.6153 -0.0409678 43.743 0.525505 44.3759C0.917038 44.8066 1.35855 45 2 45C2.64145 45 3.08296 44.8066 3.4745 44.3759C4.04097 43.743 3.99932 45.6153 3.99932 22.4799C3.99932 2.2628 3.99099 1.52443 3.84104 1.18162C3.64944 0.750909 3.22458 0.311406 2.81639 0.135605C2.3832 -0.0577757 1.54182 -0.0401956 1.1253 0.161975Z" fill="white"/>
<path d="M42.1253 0.161975C41.7171 0.364147 41.3006 0.812439 41.134 1.24315C41.0173 1.53322 41.0007 3.79226 41.0007 22.4975C41.0007 45.6153 40.959 43.743 41.5255 44.3759C41.917 44.8066 42.3586 45 43 45C43.6414 45 44.083 44.8066 44.4745 44.3759C45.041 43.743 44.9993 45.6153 44.9993 22.4799C44.9993 2.2628 44.991 1.52443 44.841 1.18162C44.6494 0.750909 44.2246 0.311406 43.8164 0.135605C43.3832 -0.0577757 42.5418 -0.0401956 42.1253 0.161975Z" fill="white"/>
<path d="M14.3249 15.2074C13.9782 15.3622 13.1515 16.1192 10.5736 18.6223C7.43558 21.6844 7.26668 21.8651 7.13334 22.3038C6.95555 22.8887 6.95555 23.1123 7.13334 23.6972C7.26668 24.1359 7.43558 24.3165 10.5736 27.3787C14.1471 30.8452 14.3338 31 15.205 31C15.8183 31 16.2717 30.8452 16.6895 30.4925C17.1873 30.0882 17.3918 29.6323 17.3918 28.9356C17.3918 28.0668 17.2051 27.783 15.7206 26.3379L14.4227 25.0649H22.5477H30.6726L29.2414 26.4669C27.6591 28.0152 27.5702 28.1529 27.6324 29.0646C27.6769 29.77 28.0236 30.3291 28.6369 30.6989C29.0192 30.9312 29.1436 30.957 29.7837 30.957C30.3704 30.957 30.557 30.9226 30.8148 30.7678C30.9837 30.6645 32.6283 29.1162 34.4684 27.3271C37.5264 24.3509 37.8197 24.0413 37.9264 23.6714C38.0597 23.1725 38.0064 22.4586 37.8108 22.0543C37.7219 21.8737 36.193 20.334 34.2551 18.476C31.1438 15.4741 30.8237 15.1902 30.4415 15.087C28.6992 14.6311 27.2324 16.0504 27.7035 17.7363C27.8102 18.089 28.0147 18.3298 29.2503 19.534L30.6726 20.9361H22.5477H14.4227L15.7739 19.62C16.5384 18.8717 17.1695 18.175 17.2406 18.0115C17.4718 17.4696 17.5073 17.0223 17.3473 16.489C16.9829 15.2676 15.5339 14.6483 14.3249 15.2074Z" fill="white"/>
</g>
<defs>
<clipPath id="clip0_456_272">
<rect width="45" height="45" fill="white"/>
</clipPath>
</defs>
</svg>
